G04 #@! TF.GenerationSoftware,KiCad,Pcbnew,9.0.3*
G04 #@! TF.CreationDate,2025-08-17T13:08:36+02:00*
G04 #@! TF.ProjectId,siemens,7369656d-656e-4732-9e6b-696361645f70,rev?*
G04 #@! TF.SameCoordinates,Original*
G04 #@! TF.FileFunction,Soldermask,Bot*
G04 #@! TF.FilePolarity,Negative*
%FSLAX46Y46*%
G04 Gerber Fmt 4.6, Leading zero omitted, Abs format (unit mm)*
G04 Created by KiCad (PCBNEW 9.0.3) date 2025-08-17 13:08:36*
%MOMM*%
%LPD*%
G01*
G04 APERTURE LIST*
G04 Aperture macros list*
%AMRoundRect*
0 Rectangle with rounded corners*
0 $1 Rounding radius*
0 $2 $3 $4 $5 $6 $7 $8 $9 X,Y pos of 4 corners*
0 Add a 4 corners polygon primitive as box body*
4,1,4,$2,$3,$4,$5,$6,$7,$8,$9,$2,$3,0*
0 Add four circle primitives for the rounded corners*
1,1,$1+$1,$2,$3*
1,1,$1+$1,$4,$5*
1,1,$1+$1,$6,$7*
1,1,$1+$1,$8,$9*
0 Add four rect primitives between the rounded corners*
20,1,$1+$1,$2,$3,$4,$5,0*
20,1,$1+$1,$4,$5,$6,$7,0*
20,1,$1+$1,$6,$7,$8,$9,0*
20,1,$1+$1,$8,$9,$2,$3,0*%
G04 Aperture macros list end*
%ADD10C,2.000000*%
%ADD11C,3.200000*%
%ADD12C,1.700000*%
%ADD13R,1.700000X1.700000*%
%ADD14R,1.000000X1.000000*%
%ADD15C,1.600000*%
%ADD16RoundRect,0.250000X-0.550000X0.550000X-0.550000X-0.550000X0.550000X-0.550000X0.550000X0.550000X0*%
%ADD17C,1.620000*%
%ADD18C,2.600000*%
%ADD19C,5.600000*%
G04 APERTURE END LIST*
D10*
X63342000Y-45092000D03*
X63342000Y-52592000D03*
X58291248Y-52592000D03*
X58291248Y-45092000D03*
X53291248Y-45092000D03*
X53291248Y-52592000D03*
D11*
X45000000Y-35000000D03*
D12*
X34000000Y-126080000D03*
X34000000Y-123540000D03*
D13*
X34000000Y-121000000D03*
X34000000Y-34000000D03*
D12*
X34000000Y-36540000D03*
X34000000Y-39080000D03*
D13*
X35452000Y-48452000D03*
D12*
X37992000Y-48452000D03*
X35452000Y-50992000D03*
X37992000Y-50992000D03*
X35452000Y-53532000D03*
X37992000Y-53532000D03*
D10*
X96791248Y-111416000D03*
X96791248Y-103916000D03*
D14*
X100342000Y-88912000D03*
D15*
X96532000Y-83822000D03*
D16*
X96532000Y-80022000D03*
D15*
X84541248Y-108210888D03*
D16*
X84541248Y-105710888D03*
D10*
X57023000Y-115831000D03*
X57023000Y-108331000D03*
D14*
X88150000Y-118249000D03*
D10*
X52791248Y-90166000D03*
X52791248Y-82666000D03*
D14*
X102628000Y-118122000D03*
D15*
X55342000Y-39142000D03*
D16*
X55342000Y-35342000D03*
D12*
X37291248Y-105866000D03*
X34751248Y-105866000D03*
X37291248Y-103326000D03*
X34751248Y-103326000D03*
X37291248Y-100786000D03*
X34751248Y-100786000D03*
X37291248Y-98246000D03*
X34751248Y-98246000D03*
X37291248Y-95706000D03*
X34751248Y-95706000D03*
X37291248Y-93166000D03*
X34751248Y-93166000D03*
X37291248Y-90626000D03*
D13*
X34751248Y-90626000D03*
D15*
X70002000Y-57291888D03*
D16*
X70002000Y-54791888D03*
D17*
X38500000Y-84500000D03*
X41000000Y-87000000D03*
X43500000Y-84500000D03*
D15*
X65151000Y-107402000D03*
D16*
X65151000Y-104902000D03*
D15*
X80276000Y-91158000D03*
D16*
X80276000Y-88658000D03*
D11*
X100000000Y-125000000D03*
D10*
X57541248Y-95416000D03*
X57541248Y-102916000D03*
D15*
X64592000Y-38592000D03*
D16*
X64592000Y-36092000D03*
D10*
X51816000Y-115831000D03*
X51816000Y-108331000D03*
D18*
X89928000Y-95214000D03*
X89928000Y-92214000D03*
D10*
X58041248Y-71666000D03*
X58041248Y-79166000D03*
D15*
X52791248Y-71416000D03*
X52791248Y-76416000D03*
D12*
X97282000Y-119761000D03*
D13*
X97282000Y-117221000D03*
D12*
X34000000Y-82540000D03*
X34000000Y-80000000D03*
D13*
X34000000Y-77460000D03*
D15*
X91291248Y-52710888D03*
D16*
X91291248Y-50210888D03*
D17*
X63286000Y-112315000D03*
X65786000Y-114815000D03*
X68286000Y-112315000D03*
D15*
X77791248Y-57497000D03*
D16*
X77791248Y-54997000D03*
D15*
X53541248Y-64416000D03*
D16*
X53541248Y-62416000D03*
D19*
X100000000Y-35000000D03*
D15*
X86880000Y-87094000D03*
D16*
X86880000Y-84594000D03*
D10*
X43041248Y-111416000D03*
X43041248Y-103916000D03*
D12*
X102120000Y-111518000D03*
X102120000Y-108978000D03*
X102120000Y-106438000D03*
D13*
X102120000Y-103898000D03*
D15*
X69541248Y-64916000D03*
D16*
X69541248Y-62416000D03*
D15*
X57791248Y-85166000D03*
X57791248Y-90166000D03*
D17*
X95088000Y-91960000D03*
X97588000Y-94460000D03*
X100088000Y-91960000D03*
D15*
X69041248Y-88618000D03*
D16*
X69041248Y-86118000D03*
D14*
X90092000Y-37592000D03*
D17*
X67604000Y-119935000D03*
X70104000Y-122435000D03*
X72604000Y-119935000D03*
D11*
X45000000Y-125000000D03*
D15*
X85791248Y-58254606D03*
D16*
X85791248Y-55754606D03*
D15*
X89791248Y-104460888D03*
D16*
X89791248Y-101960888D03*
D12*
X98291248Y-54916000D03*
D13*
X98291248Y-52376000D03*
D10*
X52840496Y-102916000D03*
X52840496Y-95416000D03*
D15*
X82816000Y-100556000D03*
D16*
X82816000Y-98056000D03*
D13*
X69342000Y-126873000D03*
D12*
X66802000Y-126873000D03*
X64262000Y-126873000D03*
X61722000Y-126873000D03*
X59182000Y-126873000D03*
X56642000Y-126873000D03*
X54102000Y-126873000D03*
X51562000Y-126873000D03*
M02*
