%TF.GenerationSoftware,KiCad,Pcbnew,9.0.3*%
%TF.CreationDate,2025-08-17T13:08:38+02:00*%
%TF.ProjectId,siemens,7369656d-656e-4732-9e6b-696361645f70,rev?*%
%TF.SameCoordinates,Original*%
%TF.FileFunction,Drillmap*%
%TF.FilePolarity,Positive*%
%FSLAX45Y45*%
G04 Gerber Fmt 4.5, Leading zero omitted, Abs format (unit mm)*
G04 Created by KiCad (PCBNEW 9.0.3) date 2025-08-17 13:08:38*
%MOMM*%
%LPD*%
G01*
G04 APERTURE LIST*
%ADD10C,0.200000*%
%ADD11C,0.100000*%
%ADD12C,0.130000*%
%ADD13C,0.320000*%
G04 APERTURE END LIST*
D10*
X3000000Y-3000000D02*
X10500000Y-3000000D01*
X10500000Y-13000000D01*
X3000000Y-13000000D01*
X3000000Y-3000000D01*
D11*
X3202225Y-4451600D02*
X3242225Y-4491600D01*
X3242225Y-4451600D02*
X3202225Y-4491600D01*
X3634125Y-4321600D02*
X3674125Y-4361600D01*
X3674125Y-4321600D02*
X3634125Y-4361600D01*
X4459125Y-8021600D02*
X4499125Y-8061600D01*
X4499125Y-8021600D02*
X4459125Y-8061600D01*
X4837912Y-5500388D02*
X4877912Y-5540388D01*
X4877912Y-5500388D02*
X4837912Y-5540388D01*
X4909125Y-7321600D02*
X4949125Y-7361600D01*
X4949125Y-7321600D02*
X4909125Y-7361600D01*
X5084125Y-5921600D02*
X5124125Y-5961600D01*
X5124125Y-5921600D02*
X5084125Y-5961600D01*
X5521625Y-6684100D02*
X5561625Y-6724100D01*
X5561625Y-6684100D02*
X5521625Y-6724100D01*
X5584125Y-5896600D02*
X5624125Y-5936600D01*
X5624125Y-5896600D02*
X5584125Y-5936600D01*
X5684125Y-5493000D02*
X5724125Y-5533000D01*
X5724125Y-5493000D02*
X5684125Y-5533000D01*
X5772400Y-7525000D02*
X5812400Y-7565000D01*
X5812400Y-7525000D02*
X5772400Y-7565000D01*
X6140700Y-8731500D02*
X6180700Y-8771500D01*
X6180700Y-8731500D02*
X6140700Y-8771500D01*
X6359125Y-9946600D02*
X6399125Y-9986600D01*
X6399125Y-9946600D02*
X6359125Y-9986600D01*
X6394700Y-5696200D02*
X6434700Y-5736200D01*
X6434700Y-5696200D02*
X6394700Y-5736200D01*
X6584125Y-6921600D02*
X6624125Y-6961600D01*
X6624125Y-6921600D02*
X6584125Y-6961600D01*
X6909125Y-9946600D02*
X6949125Y-9986600D01*
X6949125Y-9946600D02*
X6909125Y-9986600D01*
X7084125Y-4146600D02*
X7124125Y-4186600D01*
X7124125Y-4146600D02*
X7084125Y-4186600D01*
X7084125Y-4446600D02*
X7124125Y-4486600D01*
X7124125Y-4446600D02*
X7084125Y-4486600D01*
X7459125Y-11946600D02*
X7499125Y-11986600D01*
X7499125Y-11946600D02*
X7459125Y-11986600D01*
X8059125Y-4971600D02*
X8099125Y-5011600D01*
X8099125Y-4971600D02*
X8059125Y-5011600D01*
X8236200Y-7021600D02*
X8276200Y-7061600D01*
X8276200Y-7021600D02*
X8236200Y-7061600D01*
X8359125Y-7621600D02*
X8399125Y-7661600D01*
X8399125Y-7621600D02*
X8359125Y-7661600D01*
X8359125Y-7946600D02*
X8399125Y-7986600D01*
X8399125Y-7946600D02*
X8359125Y-7986600D01*
X8384125Y-6871600D02*
X8424125Y-6911600D01*
X8424125Y-6871600D02*
X8384125Y-6911600D01*
X8769600Y-8922000D02*
X8809600Y-8962000D01*
X8809600Y-8922000D02*
X8769600Y-8962000D01*
X8985500Y-11271500D02*
X9025500Y-11311500D01*
X9025500Y-11271500D02*
X8985500Y-11311500D01*
X9124000Y-3345500D02*
X9164000Y-3385500D01*
X9164000Y-3345500D02*
X9124000Y-3385500D01*
X9226800Y-8922000D02*
X9266800Y-8962000D01*
X9266800Y-8922000D02*
X9226800Y-8962000D01*
X9259125Y-9796600D02*
X9299125Y-9836600D01*
X9299125Y-9796600D02*
X9259125Y-9836600D01*
X9379200Y-12058900D02*
X9419200Y-12098900D01*
X9419200Y-12058900D02*
X9379200Y-12098900D01*
X8840000Y-11824900D02*
G75*
G02*
X8790000Y-11824900I-25000J0D01*
G01*
X8790000Y-11824900D02*
G75*
G02*
X8840000Y-11824900I25000J0D01*
G01*
X9034200Y-3759200D02*
G75*
G02*
X8984200Y-3759200I-25000J0D01*
G01*
X8984200Y-3759200D02*
G75*
G02*
X9034200Y-3759200I25000J0D01*
G01*
X10059200Y-8891200D02*
G75*
G02*
X10009200Y-8891200I-25000J0D01*
G01*
X10009200Y-8891200D02*
G75*
G02*
X10059200Y-8891200I25000J0D01*
G01*
X10287800Y-11812200D02*
G75*
G02*
X10237800Y-11812200I-25000J0D01*
G01*
X10237800Y-11812200D02*
G75*
G02*
X10287800Y-11812200I25000J0D01*
G01*
X5279125Y-7101600D02*
X5279125Y-7181600D01*
X5239125Y-7141600D02*
X5319125Y-7141600D01*
X5279125Y-7601600D02*
X5279125Y-7681600D01*
X5239125Y-7641600D02*
X5319125Y-7641600D01*
X5354125Y-6201600D02*
X5354125Y-6281600D01*
X5314125Y-6241600D02*
X5394125Y-6241600D01*
X5354125Y-6401600D02*
X5354125Y-6481600D01*
X5314125Y-6441600D02*
X5394125Y-6441600D01*
X5534200Y-3494200D02*
X5534200Y-3574200D01*
X5494200Y-3534200D02*
X5574200Y-3534200D01*
X5534200Y-3874200D02*
X5534200Y-3954200D01*
X5494200Y-3914200D02*
X5574200Y-3914200D01*
X5779125Y-8476600D02*
X5779125Y-8556600D01*
X5739125Y-8516600D02*
X5819125Y-8516600D01*
X5779125Y-8976600D02*
X5779125Y-9056600D01*
X5739125Y-9016600D02*
X5819125Y-9016600D01*
X6459200Y-3569200D02*
X6459200Y-3649200D01*
X6419200Y-3609200D02*
X6499200Y-3609200D01*
X6459200Y-3819200D02*
X6459200Y-3899200D01*
X6419200Y-3859200D02*
X6499200Y-3859200D01*
X6515100Y-10450200D02*
X6515100Y-10530200D01*
X6475100Y-10490200D02*
X6555100Y-10490200D01*
X6515100Y-10700200D02*
X6515100Y-10780200D01*
X6475100Y-10740200D02*
X6555100Y-10740200D01*
X6904125Y-8571800D02*
X6904125Y-8651800D01*
X6864125Y-8611800D02*
X6944125Y-8611800D01*
X6904125Y-8821800D02*
X6904125Y-8901800D01*
X6864125Y-8861800D02*
X6944125Y-8861800D01*
X6954125Y-6201600D02*
X6954125Y-6281600D01*
X6914125Y-6241600D02*
X6994125Y-6241600D01*
X6954125Y-6451600D02*
X6954125Y-6531600D01*
X6914125Y-6491600D02*
X6994125Y-6491600D01*
X7000200Y-5439189D02*
X7000200Y-5519189D01*
X6960200Y-5479189D02*
X7040200Y-5479189D01*
X7000200Y-5689189D02*
X7000200Y-5769189D01*
X6960200Y-5729189D02*
X7040200Y-5729189D01*
X7779125Y-5459700D02*
X7779125Y-5539700D01*
X7739125Y-5499700D02*
X7819125Y-5499700D01*
X7779125Y-5709700D02*
X7779125Y-5789700D01*
X7739125Y-5749700D02*
X7819125Y-5749700D01*
X8027600Y-8825800D02*
X8027600Y-8905800D01*
X7987600Y-8865800D02*
X8067600Y-8865800D01*
X8027600Y-9075800D02*
X8027600Y-9155800D01*
X7987600Y-9115800D02*
X8067600Y-9115800D01*
X8281600Y-9765600D02*
X8281600Y-9845600D01*
X8241600Y-9805600D02*
X8321600Y-9805600D01*
X8281600Y-10015600D02*
X8281600Y-10095600D01*
X8241600Y-10055600D02*
X8321600Y-10055600D01*
X8454125Y-10531089D02*
X8454125Y-10611089D01*
X8414125Y-10571089D02*
X8494125Y-10571089D01*
X8454125Y-10781089D02*
X8454125Y-10861089D01*
X8414125Y-10821089D02*
X8494125Y-10821089D01*
X8579125Y-5535461D02*
X8579125Y-5615461D01*
X8539125Y-5575461D02*
X8619125Y-5575461D01*
X8579125Y-5785461D02*
X8579125Y-5865461D01*
X8539125Y-5825461D02*
X8619125Y-5825461D01*
X8688000Y-8419400D02*
X8688000Y-8499400D01*
X8648000Y-8459400D02*
X8728000Y-8459400D01*
X8688000Y-8669400D02*
X8688000Y-8749400D01*
X8648000Y-8709400D02*
X8728000Y-8709400D01*
X8979125Y-10156089D02*
X8979125Y-10236089D01*
X8939125Y-10196089D02*
X9019125Y-10196089D01*
X8979125Y-10406089D02*
X8979125Y-10486089D01*
X8939125Y-10446089D02*
X9019125Y-10446089D01*
X9129125Y-4981089D02*
X9129125Y-5061089D01*
X9089125Y-5021089D02*
X9169125Y-5021089D01*
X9129125Y-5231089D02*
X9129125Y-5311089D01*
X9089125Y-5271089D02*
X9169125Y-5271089D01*
X9653200Y-7962200D02*
X9653200Y-8042200D01*
X9613200Y-8002200D02*
X9693200Y-8002200D01*
X9653200Y-8342200D02*
X9653200Y-8422200D01*
X9613200Y-8382200D02*
X9693200Y-8382200D01*
X3881820Y-8481820D02*
X3881820Y-8418180D01*
X3818180Y-8418180D01*
X3818180Y-8481820D01*
X3881820Y-8481820D01*
X4131820Y-8731820D02*
X4131820Y-8668180D01*
X4068180Y-8668180D01*
X4068180Y-8731820D01*
X4131820Y-8731820D01*
X4381820Y-8481820D02*
X4381820Y-8418180D01*
X4318180Y-8418180D01*
X4318180Y-8481820D01*
X4381820Y-8481820D01*
X6360420Y-11263320D02*
X6360420Y-11199680D01*
X6296780Y-11199680D01*
X6296780Y-11263320D01*
X6360420Y-11263320D01*
X6610420Y-11513320D02*
X6610420Y-11449680D01*
X6546780Y-11449680D01*
X6546780Y-11513320D01*
X6610420Y-11513320D01*
X6792220Y-12025320D02*
X6792220Y-11961680D01*
X6728580Y-11961680D01*
X6728580Y-12025320D01*
X6792220Y-12025320D01*
X6860420Y-11263320D02*
X6860420Y-11199680D01*
X6796780Y-11199680D01*
X6796780Y-11263320D01*
X6860420Y-11263320D01*
X7042220Y-12275320D02*
X7042220Y-12211680D01*
X6978580Y-12211680D01*
X6978580Y-12275320D01*
X7042220Y-12275320D01*
X7292220Y-12025320D02*
X7292220Y-11961680D01*
X7228580Y-11961680D01*
X7228580Y-12025320D01*
X7292220Y-12025320D01*
X9540620Y-9227820D02*
X9540620Y-9164180D01*
X9476980Y-9164180D01*
X9476980Y-9227820D01*
X9540620Y-9227820D01*
X9790620Y-9477820D02*
X9790620Y-9414180D01*
X9726980Y-9414180D01*
X9726980Y-9477820D01*
X9790620Y-9477820D01*
X10040620Y-9227820D02*
X10040620Y-9164180D01*
X9976980Y-9164180D01*
X9976980Y-9227820D01*
X10040620Y-9227820D01*
X3400000Y-3450000D02*
X3450000Y-3400000D01*
X3400000Y-3350000D01*
X3350000Y-3400000D01*
X3400000Y-3450000D01*
X3400000Y-3704000D02*
X3450000Y-3654000D01*
X3400000Y-3604000D01*
X3350000Y-3654000D01*
X3400000Y-3704000D01*
X3400000Y-3958000D02*
X3450000Y-3908000D01*
X3400000Y-3858000D01*
X3350000Y-3908000D01*
X3400000Y-3958000D01*
X3400000Y-7796000D02*
X3450000Y-7746000D01*
X3400000Y-7696000D01*
X3350000Y-7746000D01*
X3400000Y-7796000D01*
X3400000Y-8050000D02*
X3450000Y-8000000D01*
X3400000Y-7950000D01*
X3350000Y-8000000D01*
X3400000Y-8050000D01*
X3400000Y-8304000D02*
X3450000Y-8254000D01*
X3400000Y-8204000D01*
X3350000Y-8254000D01*
X3400000Y-8304000D01*
X3400000Y-12150000D02*
X3450000Y-12100000D01*
X3400000Y-12050000D01*
X3350000Y-12100000D01*
X3400000Y-12150000D01*
X3400000Y-12404000D02*
X3450000Y-12354000D01*
X3400000Y-12304000D01*
X3350000Y-12354000D01*
X3400000Y-12404000D01*
X3400000Y-12658000D02*
X3450000Y-12608000D01*
X3400000Y-12558000D01*
X3350000Y-12608000D01*
X3400000Y-12658000D01*
X3475125Y-9112600D02*
X3525125Y-9062600D01*
X3475125Y-9012600D01*
X3425125Y-9062600D01*
X3475125Y-9112600D01*
X3475125Y-9366600D02*
X3525125Y-9316600D01*
X3475125Y-9266600D01*
X3425125Y-9316600D01*
X3475125Y-9366600D01*
X3475125Y-9620600D02*
X3525125Y-9570600D01*
X3475125Y-9520600D01*
X3425125Y-9570600D01*
X3475125Y-9620600D01*
X3475125Y-9874600D02*
X3525125Y-9824600D01*
X3475125Y-9774600D01*
X3425125Y-9824600D01*
X3475125Y-9874600D01*
X3475125Y-10128600D02*
X3525125Y-10078600D01*
X3475125Y-10028600D01*
X3425125Y-10078600D01*
X3475125Y-10128600D01*
X3475125Y-10382600D02*
X3525125Y-10332600D01*
X3475125Y-10282600D01*
X3425125Y-10332600D01*
X3475125Y-10382600D01*
X3475125Y-10636600D02*
X3525125Y-10586600D01*
X3475125Y-10536600D01*
X3425125Y-10586600D01*
X3475125Y-10636600D01*
X3545200Y-4895200D02*
X3595200Y-4845200D01*
X3545200Y-4795200D01*
X3495200Y-4845200D01*
X3545200Y-4895200D01*
X3545200Y-5149200D02*
X3595200Y-5099200D01*
X3545200Y-5049200D01*
X3495200Y-5099200D01*
X3545200Y-5149200D01*
X3545200Y-5403200D02*
X3595200Y-5353200D01*
X3545200Y-5303200D01*
X3495200Y-5353200D01*
X3545200Y-5403200D01*
X3729125Y-9112600D02*
X3779125Y-9062600D01*
X3729125Y-9012600D01*
X3679125Y-9062600D01*
X3729125Y-9112600D01*
X3729125Y-9366600D02*
X3779125Y-9316600D01*
X3729125Y-9266600D01*
X3679125Y-9316600D01*
X3729125Y-9366600D01*
X3729125Y-9620600D02*
X3779125Y-9570600D01*
X3729125Y-9520600D01*
X3679125Y-9570600D01*
X3729125Y-9620600D01*
X3729125Y-9874600D02*
X3779125Y-9824600D01*
X3729125Y-9774600D01*
X3679125Y-9824600D01*
X3729125Y-9874600D01*
X3729125Y-10128600D02*
X3779125Y-10078600D01*
X3729125Y-10028600D01*
X3679125Y-10078600D01*
X3729125Y-10128600D01*
X3729125Y-10382600D02*
X3779125Y-10332600D01*
X3729125Y-10282600D01*
X3679125Y-10332600D01*
X3729125Y-10382600D01*
X3729125Y-10636600D02*
X3779125Y-10586600D01*
X3729125Y-10536600D01*
X3679125Y-10586600D01*
X3729125Y-10636600D01*
X3799200Y-4895200D02*
X3849200Y-4845200D01*
X3799200Y-4795200D01*
X3749200Y-4845200D01*
X3799200Y-4895200D01*
X3799200Y-5149200D02*
X3849200Y-5099200D01*
X3799200Y-5049200D01*
X3749200Y-5099200D01*
X3799200Y-5149200D01*
X3799200Y-5403200D02*
X3849200Y-5353200D01*
X3799200Y-5303200D01*
X3749200Y-5353200D01*
X3799200Y-5403200D01*
X4304125Y-10441600D02*
X4354125Y-10391600D01*
X4304125Y-10341600D01*
X4254125Y-10391600D01*
X4304125Y-10441600D01*
X4304125Y-11191600D02*
X4354125Y-11141600D01*
X4304125Y-11091600D01*
X4254125Y-11141600D01*
X4304125Y-11191600D01*
X5156200Y-12737300D02*
X5206200Y-12687300D01*
X5156200Y-12637300D01*
X5106200Y-12687300D01*
X5156200Y-12737300D01*
X5181600Y-10883100D02*
X5231600Y-10833100D01*
X5181600Y-10783100D01*
X5131600Y-10833100D01*
X5181600Y-10883100D01*
X5181600Y-11633100D02*
X5231600Y-11583100D01*
X5181600Y-11533100D01*
X5131600Y-11583100D01*
X5181600Y-11633100D01*
X5279125Y-8316600D02*
X5329125Y-8266600D01*
X5279125Y-8216600D01*
X5229125Y-8266600D01*
X5279125Y-8316600D01*
X5279125Y-9066600D02*
X5329125Y-9016600D01*
X5279125Y-8966600D01*
X5229125Y-9016600D01*
X5279125Y-9066600D01*
X5284050Y-9591600D02*
X5334050Y-9541600D01*
X5284050Y-9491600D01*
X5234050Y-9541600D01*
X5284050Y-9591600D01*
X5284050Y-10341600D02*
X5334050Y-10291600D01*
X5284050Y-10241600D01*
X5234050Y-10291600D01*
X5284050Y-10341600D01*
X5329125Y-4559200D02*
X5379125Y-4509200D01*
X5329125Y-4459200D01*
X5279125Y-4509200D01*
X5329125Y-4559200D01*
X5329125Y-5309200D02*
X5379125Y-5259200D01*
X5329125Y-5209200D01*
X5279125Y-5259200D01*
X5329125Y-5309200D01*
X5410200Y-12737300D02*
X5460200Y-12687300D01*
X5410200Y-12637300D01*
X5360200Y-12687300D01*
X5410200Y-12737300D01*
X5664200Y-12737300D02*
X5714200Y-12687300D01*
X5664200Y-12637300D01*
X5614200Y-12687300D01*
X5664200Y-12737300D01*
X5702300Y-10883100D02*
X5752300Y-10833100D01*
X5702300Y-10783100D01*
X5652300Y-10833100D01*
X5702300Y-10883100D01*
X5702300Y-11633100D02*
X5752300Y-11583100D01*
X5702300Y-11533100D01*
X5652300Y-11583100D01*
X5702300Y-11633100D01*
X5754125Y-9591600D02*
X5804125Y-9541600D01*
X5754125Y-9491600D01*
X5704125Y-9541600D01*
X5754125Y-9591600D01*
X5754125Y-10341600D02*
X5804125Y-10291600D01*
X5754125Y-10241600D01*
X5704125Y-10291600D01*
X5754125Y-10341600D01*
X5804125Y-7216600D02*
X5854125Y-7166600D01*
X5804125Y-7116600D01*
X5754125Y-7166600D01*
X5804125Y-7216600D01*
X5804125Y-7966600D02*
X5854125Y-7916600D01*
X5804125Y-7866600D01*
X5754125Y-7916600D01*
X5804125Y-7966600D01*
X5829125Y-4559200D02*
X5879125Y-4509200D01*
X5829125Y-4459200D01*
X5779125Y-4509200D01*
X5829125Y-4559200D01*
X5829125Y-5309200D02*
X5879125Y-5259200D01*
X5829125Y-5209200D01*
X5779125Y-5259200D01*
X5829125Y-5309200D01*
X5918200Y-12737300D02*
X5968200Y-12687300D01*
X5918200Y-12637300D01*
X5868200Y-12687300D01*
X5918200Y-12737300D01*
X6172200Y-12737300D02*
X6222200Y-12687300D01*
X6172200Y-12637300D01*
X6122200Y-12687300D01*
X6172200Y-12737300D01*
X6334200Y-4559200D02*
X6384200Y-4509200D01*
X6334200Y-4459200D01*
X6284200Y-4509200D01*
X6334200Y-4559200D01*
X6334200Y-5309200D02*
X6384200Y-5259200D01*
X6334200Y-5209200D01*
X6284200Y-5259200D01*
X6334200Y-5309200D01*
X6426200Y-12737300D02*
X6476200Y-12687300D01*
X6426200Y-12637300D01*
X6376200Y-12687300D01*
X6426200Y-12737300D01*
X6680200Y-12737300D02*
X6730200Y-12687300D01*
X6680200Y-12637300D01*
X6630200Y-12687300D01*
X6680200Y-12737300D01*
X6934200Y-12737300D02*
X6984200Y-12687300D01*
X6934200Y-12637300D01*
X6884200Y-12687300D01*
X6934200Y-12737300D01*
X9679125Y-10441600D02*
X9729125Y-10391600D01*
X9679125Y-10341600D01*
X9629125Y-10391600D01*
X9679125Y-10441600D01*
X9679125Y-11191600D02*
X9729125Y-11141600D01*
X9679125Y-11091600D01*
X9629125Y-11141600D01*
X9679125Y-11191600D01*
X9728200Y-11772100D02*
X9778200Y-11722100D01*
X9728200Y-11672100D01*
X9678200Y-11722100D01*
X9728200Y-11772100D01*
X9728200Y-12026100D02*
X9778200Y-11976100D01*
X9728200Y-11926100D01*
X9678200Y-11976100D01*
X9728200Y-12026100D01*
X9829125Y-5287600D02*
X9879125Y-5237600D01*
X9829125Y-5187600D01*
X9779125Y-5237600D01*
X9829125Y-5287600D01*
X9829125Y-5541600D02*
X9879125Y-5491600D01*
X9829125Y-5441600D01*
X9779125Y-5491600D01*
X9829125Y-5541600D01*
X10212000Y-10439800D02*
X10262000Y-10389800D01*
X10212000Y-10339800D01*
X10162000Y-10389800D01*
X10212000Y-10439800D01*
X10212000Y-10693800D02*
X10262000Y-10643800D01*
X10212000Y-10593800D01*
X10162000Y-10643800D01*
X10212000Y-10693800D01*
X10212000Y-10947800D02*
X10262000Y-10897800D01*
X10212000Y-10847800D01*
X10162000Y-10897800D01*
X10212000Y-10947800D01*
X10212000Y-11201800D02*
X10262000Y-11151800D01*
X10212000Y-11101800D01*
X10162000Y-11151800D01*
X10212000Y-11201800D01*
D12*
X8927800Y-9156400D02*
X9057800Y-9286400D01*
X9057800Y-9156400D02*
X8927800Y-9286400D01*
X9057800Y-9221400D02*
G75*
G02*
X8927800Y-9221400I-65000J0D01*
G01*
X8927800Y-9221400D02*
G75*
G02*
X9057800Y-9221400I65000J0D01*
G01*
X8927800Y-9456400D02*
X9057800Y-9586400D01*
X9057800Y-9456400D02*
X8927800Y-9586400D01*
X9057800Y-9521400D02*
G75*
G02*
X8927800Y-9521400I-65000J0D01*
G01*
X8927800Y-9521400D02*
G75*
G02*
X9057800Y-9521400I65000J0D01*
G01*
D13*
X9840000Y-3340000D02*
X10160000Y-3660000D01*
X10160000Y-3340000D02*
X9840000Y-3660000D01*
X10000000Y-3340000D02*
X10000000Y-3660000D01*
X9840000Y-3500000D02*
X10160000Y-3500000D01*
D10*
X3250777Y-13321484D02*
X3250777Y-13121484D01*
X3250777Y-13121484D02*
X3298396Y-13121484D01*
X3298396Y-13121484D02*
X3326967Y-13131008D01*
X3326967Y-13131008D02*
X3346015Y-13150055D01*
X3346015Y-13150055D02*
X3355539Y-13169103D01*
X3355539Y-13169103D02*
X3365062Y-13207198D01*
X3365062Y-13207198D02*
X3365062Y-13235769D01*
X3365062Y-13235769D02*
X3355539Y-13273865D01*
X3355539Y-13273865D02*
X3346015Y-13292912D01*
X3346015Y-13292912D02*
X3326967Y-13311960D01*
X3326967Y-13311960D02*
X3298396Y-13321484D01*
X3298396Y-13321484D02*
X3250777Y-13321484D01*
X3450777Y-13321484D02*
X3450777Y-13188150D01*
X3450777Y-13226246D02*
X3460301Y-13207198D01*
X3460301Y-13207198D02*
X3469824Y-13197674D01*
X3469824Y-13197674D02*
X3488872Y-13188150D01*
X3488872Y-13188150D02*
X3507920Y-13188150D01*
X3574586Y-13321484D02*
X3574586Y-13188150D01*
X3574586Y-13121484D02*
X3565062Y-13131008D01*
X3565062Y-13131008D02*
X3574586Y-13140531D01*
X3574586Y-13140531D02*
X3584110Y-13131008D01*
X3584110Y-13131008D02*
X3574586Y-13121484D01*
X3574586Y-13121484D02*
X3574586Y-13140531D01*
X3698396Y-13321484D02*
X3679348Y-13311960D01*
X3679348Y-13311960D02*
X3669824Y-13292912D01*
X3669824Y-13292912D02*
X3669824Y-13121484D01*
X3803158Y-13321484D02*
X3784110Y-13311960D01*
X3784110Y-13311960D02*
X3774586Y-13292912D01*
X3774586Y-13292912D02*
X3774586Y-13121484D01*
X4031729Y-13321484D02*
X4031729Y-13121484D01*
X4031729Y-13121484D02*
X4098396Y-13264341D01*
X4098396Y-13264341D02*
X4165062Y-13121484D01*
X4165062Y-13121484D02*
X4165062Y-13321484D01*
X4346015Y-13321484D02*
X4346015Y-13216722D01*
X4346015Y-13216722D02*
X4336491Y-13197674D01*
X4336491Y-13197674D02*
X4317444Y-13188150D01*
X4317444Y-13188150D02*
X4279348Y-13188150D01*
X4279348Y-13188150D02*
X4260301Y-13197674D01*
X4346015Y-13311960D02*
X4326967Y-13321484D01*
X4326967Y-13321484D02*
X4279348Y-13321484D01*
X4279348Y-13321484D02*
X4260301Y-13311960D01*
X4260301Y-13311960D02*
X4250777Y-13292912D01*
X4250777Y-13292912D02*
X4250777Y-13273865D01*
X4250777Y-13273865D02*
X4260301Y-13254817D01*
X4260301Y-13254817D02*
X4279348Y-13245293D01*
X4279348Y-13245293D02*
X4326967Y-13245293D01*
X4326967Y-13245293D02*
X4346015Y-13235769D01*
X4441253Y-13188150D02*
X4441253Y-13388150D01*
X4441253Y-13197674D02*
X4460301Y-13188150D01*
X4460301Y-13188150D02*
X4498396Y-13188150D01*
X4498396Y-13188150D02*
X4517444Y-13197674D01*
X4517444Y-13197674D02*
X4526967Y-13207198D01*
X4526967Y-13207198D02*
X4536491Y-13226246D01*
X4536491Y-13226246D02*
X4536491Y-13283388D01*
X4536491Y-13283388D02*
X4526967Y-13302436D01*
X4526967Y-13302436D02*
X4517444Y-13311960D01*
X4517444Y-13311960D02*
X4498396Y-13321484D01*
X4498396Y-13321484D02*
X4460301Y-13321484D01*
X4460301Y-13321484D02*
X4441253Y-13311960D01*
X4622205Y-13302436D02*
X4631729Y-13311960D01*
X4631729Y-13311960D02*
X4622205Y-13321484D01*
X4622205Y-13321484D02*
X4612682Y-13311960D01*
X4612682Y-13311960D02*
X4622205Y-13302436D01*
X4622205Y-13302436D02*
X4622205Y-13321484D01*
X4622205Y-13197674D02*
X4631729Y-13207198D01*
X4631729Y-13207198D02*
X4622205Y-13216722D01*
X4622205Y-13216722D02*
X4612682Y-13207198D01*
X4612682Y-13207198D02*
X4622205Y-13197674D01*
X4622205Y-13197674D02*
X4622205Y-13216722D01*
D11*
X2950000Y-13630000D02*
X2990000Y-13670000D01*
X2990000Y-13630000D02*
X2950000Y-13670000D01*
D10*
X3288872Y-13541484D02*
X3307920Y-13541484D01*
X3307920Y-13541484D02*
X3326967Y-13551008D01*
X3326967Y-13551008D02*
X3336491Y-13560531D01*
X3336491Y-13560531D02*
X3346015Y-13579579D01*
X3346015Y-13579579D02*
X3355539Y-13617674D01*
X3355539Y-13617674D02*
X3355539Y-13665293D01*
X3355539Y-13665293D02*
X3346015Y-13703388D01*
X3346015Y-13703388D02*
X3336491Y-13722436D01*
X3336491Y-13722436D02*
X3326967Y-13731960D01*
X3326967Y-13731960D02*
X3307920Y-13741484D01*
X3307920Y-13741484D02*
X3288872Y-13741484D01*
X3288872Y-13741484D02*
X3269824Y-13731960D01*
X3269824Y-13731960D02*
X3260301Y-13722436D01*
X3260301Y-13722436D02*
X3250777Y-13703388D01*
X3250777Y-13703388D02*
X3241253Y-13665293D01*
X3241253Y-13665293D02*
X3241253Y-13617674D01*
X3241253Y-13617674D02*
X3250777Y-13579579D01*
X3250777Y-13579579D02*
X3260301Y-13560531D01*
X3260301Y-13560531D02*
X3269824Y-13551008D01*
X3269824Y-13551008D02*
X3288872Y-13541484D01*
X3441253Y-13722436D02*
X3450777Y-13731960D01*
X3450777Y-13731960D02*
X3441253Y-13741484D01*
X3441253Y-13741484D02*
X3431729Y-13731960D01*
X3431729Y-13731960D02*
X3441253Y-13722436D01*
X3441253Y-13722436D02*
X3441253Y-13741484D01*
X3622205Y-13608150D02*
X3622205Y-13741484D01*
X3574586Y-13531960D02*
X3526967Y-13674817D01*
X3526967Y-13674817D02*
X3650777Y-13674817D01*
X3765062Y-13541484D02*
X3784110Y-13541484D01*
X3784110Y-13541484D02*
X3803158Y-13551008D01*
X3803158Y-13551008D02*
X3812682Y-13560531D01*
X3812682Y-13560531D02*
X3822205Y-13579579D01*
X3822205Y-13579579D02*
X3831729Y-13617674D01*
X3831729Y-13617674D02*
X3831729Y-13665293D01*
X3831729Y-13665293D02*
X3822205Y-13703388D01*
X3822205Y-13703388D02*
X3812682Y-13722436D01*
X3812682Y-13722436D02*
X3803158Y-13731960D01*
X3803158Y-13731960D02*
X3784110Y-13741484D01*
X3784110Y-13741484D02*
X3765062Y-13741484D01*
X3765062Y-13741484D02*
X3746015Y-13731960D01*
X3746015Y-13731960D02*
X3736491Y-13722436D01*
X3736491Y-13722436D02*
X3726967Y-13703388D01*
X3726967Y-13703388D02*
X3717443Y-13665293D01*
X3717443Y-13665293D02*
X3717443Y-13617674D01*
X3717443Y-13617674D02*
X3726967Y-13579579D01*
X3726967Y-13579579D02*
X3736491Y-13560531D01*
X3736491Y-13560531D02*
X3746015Y-13551008D01*
X3746015Y-13551008D02*
X3765062Y-13541484D01*
X3955539Y-13541484D02*
X3974586Y-13541484D01*
X3974586Y-13541484D02*
X3993634Y-13551008D01*
X3993634Y-13551008D02*
X4003158Y-13560531D01*
X4003158Y-13560531D02*
X4012682Y-13579579D01*
X4012682Y-13579579D02*
X4022205Y-13617674D01*
X4022205Y-13617674D02*
X4022205Y-13665293D01*
X4022205Y-13665293D02*
X4012682Y-13703388D01*
X4012682Y-13703388D02*
X4003158Y-13722436D01*
X4003158Y-13722436D02*
X3993634Y-13731960D01*
X3993634Y-13731960D02*
X3974586Y-13741484D01*
X3974586Y-13741484D02*
X3955539Y-13741484D01*
X3955539Y-13741484D02*
X3936491Y-13731960D01*
X3936491Y-13731960D02*
X3926967Y-13722436D01*
X3926967Y-13722436D02*
X3917443Y-13703388D01*
X3917443Y-13703388D02*
X3907920Y-13665293D01*
X3907920Y-13665293D02*
X3907920Y-13617674D01*
X3907920Y-13617674D02*
X3917443Y-13579579D01*
X3917443Y-13579579D02*
X3926967Y-13560531D01*
X3926967Y-13560531D02*
X3936491Y-13551008D01*
X3936491Y-13551008D02*
X3955539Y-13541484D01*
X4107920Y-13741484D02*
X4107920Y-13608150D01*
X4107920Y-13627198D02*
X4117443Y-13617674D01*
X4117443Y-13617674D02*
X4136491Y-13608150D01*
X4136491Y-13608150D02*
X4165063Y-13608150D01*
X4165063Y-13608150D02*
X4184110Y-13617674D01*
X4184110Y-13617674D02*
X4193634Y-13636722D01*
X4193634Y-13636722D02*
X4193634Y-13741484D01*
X4193634Y-13636722D02*
X4203158Y-13617674D01*
X4203158Y-13617674D02*
X4222205Y-13608150D01*
X4222205Y-13608150D02*
X4250777Y-13608150D01*
X4250777Y-13608150D02*
X4269825Y-13617674D01*
X4269825Y-13617674D02*
X4279348Y-13636722D01*
X4279348Y-13636722D02*
X4279348Y-13741484D01*
X4374586Y-13741484D02*
X4374586Y-13608150D01*
X4374586Y-13627198D02*
X4384110Y-13617674D01*
X4384110Y-13617674D02*
X4403158Y-13608150D01*
X4403158Y-13608150D02*
X4431729Y-13608150D01*
X4431729Y-13608150D02*
X4450777Y-13617674D01*
X4450777Y-13617674D02*
X4460301Y-13636722D01*
X4460301Y-13636722D02*
X4460301Y-13741484D01*
X4460301Y-13636722D02*
X4469825Y-13617674D01*
X4469825Y-13617674D02*
X4488872Y-13608150D01*
X4488872Y-13608150D02*
X4517444Y-13608150D01*
X4517444Y-13608150D02*
X4536491Y-13617674D01*
X4536491Y-13617674D02*
X4546015Y-13636722D01*
X4546015Y-13636722D02*
X4546015Y-13741484D01*
X4936491Y-13531960D02*
X4765063Y-13789103D01*
X5193634Y-13541484D02*
X5212682Y-13541484D01*
X5212682Y-13541484D02*
X5231729Y-13551008D01*
X5231729Y-13551008D02*
X5241253Y-13560531D01*
X5241253Y-13560531D02*
X5250777Y-13579579D01*
X5250777Y-13579579D02*
X5260301Y-13617674D01*
X5260301Y-13617674D02*
X5260301Y-13665293D01*
X5260301Y-13665293D02*
X5250777Y-13703388D01*
X5250777Y-13703388D02*
X5241253Y-13722436D01*
X5241253Y-13722436D02*
X5231729Y-13731960D01*
X5231729Y-13731960D02*
X5212682Y-13741484D01*
X5212682Y-13741484D02*
X5193634Y-13741484D01*
X5193634Y-13741484D02*
X5174587Y-13731960D01*
X5174587Y-13731960D02*
X5165063Y-13722436D01*
X5165063Y-13722436D02*
X5155539Y-13703388D01*
X5155539Y-13703388D02*
X5146015Y-13665293D01*
X5146015Y-13665293D02*
X5146015Y-13617674D01*
X5146015Y-13617674D02*
X5155539Y-13579579D01*
X5155539Y-13579579D02*
X5165063Y-13560531D01*
X5165063Y-13560531D02*
X5174587Y-13551008D01*
X5174587Y-13551008D02*
X5193634Y-13541484D01*
X5346015Y-13722436D02*
X5355539Y-13731960D01*
X5355539Y-13731960D02*
X5346015Y-13741484D01*
X5346015Y-13741484D02*
X5336491Y-13731960D01*
X5336491Y-13731960D02*
X5346015Y-13722436D01*
X5346015Y-13722436D02*
X5346015Y-13741484D01*
X5479348Y-13541484D02*
X5498396Y-13541484D01*
X5498396Y-13541484D02*
X5517444Y-13551008D01*
X5517444Y-13551008D02*
X5526968Y-13560531D01*
X5526968Y-13560531D02*
X5536491Y-13579579D01*
X5536491Y-13579579D02*
X5546015Y-13617674D01*
X5546015Y-13617674D02*
X5546015Y-13665293D01*
X5546015Y-13665293D02*
X5536491Y-13703388D01*
X5536491Y-13703388D02*
X5526968Y-13722436D01*
X5526968Y-13722436D02*
X5517444Y-13731960D01*
X5517444Y-13731960D02*
X5498396Y-13741484D01*
X5498396Y-13741484D02*
X5479348Y-13741484D01*
X5479348Y-13741484D02*
X5460301Y-13731960D01*
X5460301Y-13731960D02*
X5450777Y-13722436D01*
X5450777Y-13722436D02*
X5441253Y-13703388D01*
X5441253Y-13703388D02*
X5431729Y-13665293D01*
X5431729Y-13665293D02*
X5431729Y-13617674D01*
X5431729Y-13617674D02*
X5441253Y-13579579D01*
X5441253Y-13579579D02*
X5450777Y-13560531D01*
X5450777Y-13560531D02*
X5460301Y-13551008D01*
X5460301Y-13551008D02*
X5479348Y-13541484D01*
X5736491Y-13741484D02*
X5622206Y-13741484D01*
X5679348Y-13741484D02*
X5679348Y-13541484D01*
X5679348Y-13541484D02*
X5660301Y-13570055D01*
X5660301Y-13570055D02*
X5641253Y-13589103D01*
X5641253Y-13589103D02*
X5622206Y-13598627D01*
X5917444Y-13541484D02*
X5822206Y-13541484D01*
X5822206Y-13541484D02*
X5812682Y-13636722D01*
X5812682Y-13636722D02*
X5822206Y-13627198D01*
X5822206Y-13627198D02*
X5841253Y-13617674D01*
X5841253Y-13617674D02*
X5888872Y-13617674D01*
X5888872Y-13617674D02*
X5907920Y-13627198D01*
X5907920Y-13627198D02*
X5917444Y-13636722D01*
X5917444Y-13636722D02*
X5926967Y-13655769D01*
X5926967Y-13655769D02*
X5926967Y-13703388D01*
X5926967Y-13703388D02*
X5917444Y-13722436D01*
X5917444Y-13722436D02*
X5907920Y-13731960D01*
X5907920Y-13731960D02*
X5888872Y-13741484D01*
X5888872Y-13741484D02*
X5841253Y-13741484D01*
X5841253Y-13741484D02*
X5822206Y-13731960D01*
X5822206Y-13731960D02*
X5812682Y-13722436D01*
X5993634Y-13541484D02*
X6126967Y-13541484D01*
X6126967Y-13541484D02*
X6041253Y-13741484D01*
X6193634Y-13541484D02*
X6193634Y-13579579D01*
X6269825Y-13541484D02*
X6269825Y-13579579D01*
X6565063Y-13817674D02*
X6555539Y-13808150D01*
X6555539Y-13808150D02*
X6536491Y-13779579D01*
X6536491Y-13779579D02*
X6526968Y-13760531D01*
X6526968Y-13760531D02*
X6517444Y-13731960D01*
X6517444Y-13731960D02*
X6507920Y-13684341D01*
X6507920Y-13684341D02*
X6507920Y-13646246D01*
X6507920Y-13646246D02*
X6517444Y-13598627D01*
X6517444Y-13598627D02*
X6526968Y-13570055D01*
X6526968Y-13570055D02*
X6536491Y-13551008D01*
X6536491Y-13551008D02*
X6555539Y-13522436D01*
X6555539Y-13522436D02*
X6565063Y-13512912D01*
X6631729Y-13560531D02*
X6641253Y-13551008D01*
X6641253Y-13551008D02*
X6660301Y-13541484D01*
X6660301Y-13541484D02*
X6707920Y-13541484D01*
X6707920Y-13541484D02*
X6726968Y-13551008D01*
X6726968Y-13551008D02*
X6736491Y-13560531D01*
X6736491Y-13560531D02*
X6746015Y-13579579D01*
X6746015Y-13579579D02*
X6746015Y-13598627D01*
X6746015Y-13598627D02*
X6736491Y-13627198D01*
X6736491Y-13627198D02*
X6622206Y-13741484D01*
X6622206Y-13741484D02*
X6746015Y-13741484D01*
X6841253Y-13741484D02*
X6879348Y-13741484D01*
X6879348Y-13741484D02*
X6898396Y-13731960D01*
X6898396Y-13731960D02*
X6907920Y-13722436D01*
X6907920Y-13722436D02*
X6926968Y-13693865D01*
X6926968Y-13693865D02*
X6936491Y-13655769D01*
X6936491Y-13655769D02*
X6936491Y-13579579D01*
X6936491Y-13579579D02*
X6926968Y-13560531D01*
X6926968Y-13560531D02*
X6917444Y-13551008D01*
X6917444Y-13551008D02*
X6898396Y-13541484D01*
X6898396Y-13541484D02*
X6860301Y-13541484D01*
X6860301Y-13541484D02*
X6841253Y-13551008D01*
X6841253Y-13551008D02*
X6831729Y-13560531D01*
X6831729Y-13560531D02*
X6822206Y-13579579D01*
X6822206Y-13579579D02*
X6822206Y-13627198D01*
X6822206Y-13627198D02*
X6831729Y-13646246D01*
X6831729Y-13646246D02*
X6841253Y-13655769D01*
X6841253Y-13655769D02*
X6860301Y-13665293D01*
X6860301Y-13665293D02*
X6898396Y-13665293D01*
X6898396Y-13665293D02*
X6917444Y-13655769D01*
X6917444Y-13655769D02*
X6926968Y-13646246D01*
X6926968Y-13646246D02*
X6936491Y-13627198D01*
X7174587Y-13741484D02*
X7174587Y-13541484D01*
X7260301Y-13741484D02*
X7260301Y-13636722D01*
X7260301Y-13636722D02*
X7250777Y-13617674D01*
X7250777Y-13617674D02*
X7231730Y-13608150D01*
X7231730Y-13608150D02*
X7203158Y-13608150D01*
X7203158Y-13608150D02*
X7184110Y-13617674D01*
X7184110Y-13617674D02*
X7174587Y-13627198D01*
X7384110Y-13741484D02*
X7365063Y-13731960D01*
X7365063Y-13731960D02*
X7355539Y-13722436D01*
X7355539Y-13722436D02*
X7346015Y-13703388D01*
X7346015Y-13703388D02*
X7346015Y-13646246D01*
X7346015Y-13646246D02*
X7355539Y-13627198D01*
X7355539Y-13627198D02*
X7365063Y-13617674D01*
X7365063Y-13617674D02*
X7384110Y-13608150D01*
X7384110Y-13608150D02*
X7412682Y-13608150D01*
X7412682Y-13608150D02*
X7431730Y-13617674D01*
X7431730Y-13617674D02*
X7441253Y-13627198D01*
X7441253Y-13627198D02*
X7450777Y-13646246D01*
X7450777Y-13646246D02*
X7450777Y-13703388D01*
X7450777Y-13703388D02*
X7441253Y-13722436D01*
X7441253Y-13722436D02*
X7431730Y-13731960D01*
X7431730Y-13731960D02*
X7412682Y-13741484D01*
X7412682Y-13741484D02*
X7384110Y-13741484D01*
X7565063Y-13741484D02*
X7546015Y-13731960D01*
X7546015Y-13731960D02*
X7536491Y-13712912D01*
X7536491Y-13712912D02*
X7536491Y-13541484D01*
X7717444Y-13731960D02*
X7698396Y-13741484D01*
X7698396Y-13741484D02*
X7660301Y-13741484D01*
X7660301Y-13741484D02*
X7641253Y-13731960D01*
X7641253Y-13731960D02*
X7631730Y-13712912D01*
X7631730Y-13712912D02*
X7631730Y-13636722D01*
X7631730Y-13636722D02*
X7641253Y-13617674D01*
X7641253Y-13617674D02*
X7660301Y-13608150D01*
X7660301Y-13608150D02*
X7698396Y-13608150D01*
X7698396Y-13608150D02*
X7717444Y-13617674D01*
X7717444Y-13617674D02*
X7726968Y-13636722D01*
X7726968Y-13636722D02*
X7726968Y-13655769D01*
X7726968Y-13655769D02*
X7631730Y-13674817D01*
X7803158Y-13731960D02*
X7822206Y-13741484D01*
X7822206Y-13741484D02*
X7860301Y-13741484D01*
X7860301Y-13741484D02*
X7879349Y-13731960D01*
X7879349Y-13731960D02*
X7888872Y-13712912D01*
X7888872Y-13712912D02*
X7888872Y-13703388D01*
X7888872Y-13703388D02*
X7879349Y-13684341D01*
X7879349Y-13684341D02*
X7860301Y-13674817D01*
X7860301Y-13674817D02*
X7831730Y-13674817D01*
X7831730Y-13674817D02*
X7812682Y-13665293D01*
X7812682Y-13665293D02*
X7803158Y-13646246D01*
X7803158Y-13646246D02*
X7803158Y-13636722D01*
X7803158Y-13636722D02*
X7812682Y-13617674D01*
X7812682Y-13617674D02*
X7831730Y-13608150D01*
X7831730Y-13608150D02*
X7860301Y-13608150D01*
X7860301Y-13608150D02*
X7879349Y-13617674D01*
X7955539Y-13817674D02*
X7965063Y-13808150D01*
X7965063Y-13808150D02*
X7984111Y-13779579D01*
X7984111Y-13779579D02*
X7993634Y-13760531D01*
X7993634Y-13760531D02*
X8003158Y-13731960D01*
X8003158Y-13731960D02*
X8012682Y-13684341D01*
X8012682Y-13684341D02*
X8012682Y-13646246D01*
X8012682Y-13646246D02*
X8003158Y-13598627D01*
X8003158Y-13598627D02*
X7993634Y-13570055D01*
X7993634Y-13570055D02*
X7984111Y-13551008D01*
X7984111Y-13551008D02*
X7965063Y-13522436D01*
X7965063Y-13522436D02*
X7955539Y-13512912D01*
D11*
X2990000Y-13914000D02*
G75*
G02*
X2940000Y-13914000I-25000J0D01*
G01*
X2940000Y-13914000D02*
G75*
G02*
X2990000Y-13914000I25000J0D01*
G01*
D10*
X3288872Y-13805484D02*
X3307920Y-13805484D01*
X3307920Y-13805484D02*
X3326967Y-13815008D01*
X3326967Y-13815008D02*
X3336491Y-13824531D01*
X3336491Y-13824531D02*
X3346015Y-13843579D01*
X3346015Y-13843579D02*
X3355539Y-13881674D01*
X3355539Y-13881674D02*
X3355539Y-13929293D01*
X3355539Y-13929293D02*
X3346015Y-13967388D01*
X3346015Y-13967388D02*
X3336491Y-13986436D01*
X3336491Y-13986436D02*
X3326967Y-13995960D01*
X3326967Y-13995960D02*
X3307920Y-14005484D01*
X3307920Y-14005484D02*
X3288872Y-14005484D01*
X3288872Y-14005484D02*
X3269824Y-13995960D01*
X3269824Y-13995960D02*
X3260301Y-13986436D01*
X3260301Y-13986436D02*
X3250777Y-13967388D01*
X3250777Y-13967388D02*
X3241253Y-13929293D01*
X3241253Y-13929293D02*
X3241253Y-13881674D01*
X3241253Y-13881674D02*
X3250777Y-13843579D01*
X3250777Y-13843579D02*
X3260301Y-13824531D01*
X3260301Y-13824531D02*
X3269824Y-13815008D01*
X3269824Y-13815008D02*
X3288872Y-13805484D01*
X3441253Y-13986436D02*
X3450777Y-13995960D01*
X3450777Y-13995960D02*
X3441253Y-14005484D01*
X3441253Y-14005484D02*
X3431729Y-13995960D01*
X3431729Y-13995960D02*
X3441253Y-13986436D01*
X3441253Y-13986436D02*
X3441253Y-14005484D01*
X3631729Y-13805484D02*
X3536491Y-13805484D01*
X3536491Y-13805484D02*
X3526967Y-13900722D01*
X3526967Y-13900722D02*
X3536491Y-13891198D01*
X3536491Y-13891198D02*
X3555539Y-13881674D01*
X3555539Y-13881674D02*
X3603158Y-13881674D01*
X3603158Y-13881674D02*
X3622205Y-13891198D01*
X3622205Y-13891198D02*
X3631729Y-13900722D01*
X3631729Y-13900722D02*
X3641253Y-13919769D01*
X3641253Y-13919769D02*
X3641253Y-13967388D01*
X3641253Y-13967388D02*
X3631729Y-13986436D01*
X3631729Y-13986436D02*
X3622205Y-13995960D01*
X3622205Y-13995960D02*
X3603158Y-14005484D01*
X3603158Y-14005484D02*
X3555539Y-14005484D01*
X3555539Y-14005484D02*
X3536491Y-13995960D01*
X3536491Y-13995960D02*
X3526967Y-13986436D01*
X3765062Y-13805484D02*
X3784110Y-13805484D01*
X3784110Y-13805484D02*
X3803158Y-13815008D01*
X3803158Y-13815008D02*
X3812682Y-13824531D01*
X3812682Y-13824531D02*
X3822205Y-13843579D01*
X3822205Y-13843579D02*
X3831729Y-13881674D01*
X3831729Y-13881674D02*
X3831729Y-13929293D01*
X3831729Y-13929293D02*
X3822205Y-13967388D01*
X3822205Y-13967388D02*
X3812682Y-13986436D01*
X3812682Y-13986436D02*
X3803158Y-13995960D01*
X3803158Y-13995960D02*
X3784110Y-14005484D01*
X3784110Y-14005484D02*
X3765062Y-14005484D01*
X3765062Y-14005484D02*
X3746015Y-13995960D01*
X3746015Y-13995960D02*
X3736491Y-13986436D01*
X3736491Y-13986436D02*
X3726967Y-13967388D01*
X3726967Y-13967388D02*
X3717443Y-13929293D01*
X3717443Y-13929293D02*
X3717443Y-13881674D01*
X3717443Y-13881674D02*
X3726967Y-13843579D01*
X3726967Y-13843579D02*
X3736491Y-13824531D01*
X3736491Y-13824531D02*
X3746015Y-13815008D01*
X3746015Y-13815008D02*
X3765062Y-13805484D01*
X3955539Y-13805484D02*
X3974586Y-13805484D01*
X3974586Y-13805484D02*
X3993634Y-13815008D01*
X3993634Y-13815008D02*
X4003158Y-13824531D01*
X4003158Y-13824531D02*
X4012682Y-13843579D01*
X4012682Y-13843579D02*
X4022205Y-13881674D01*
X4022205Y-13881674D02*
X4022205Y-13929293D01*
X4022205Y-13929293D02*
X4012682Y-13967388D01*
X4012682Y-13967388D02*
X4003158Y-13986436D01*
X4003158Y-13986436D02*
X3993634Y-13995960D01*
X3993634Y-13995960D02*
X3974586Y-14005484D01*
X3974586Y-14005484D02*
X3955539Y-14005484D01*
X3955539Y-14005484D02*
X3936491Y-13995960D01*
X3936491Y-13995960D02*
X3926967Y-13986436D01*
X3926967Y-13986436D02*
X3917443Y-13967388D01*
X3917443Y-13967388D02*
X3907920Y-13929293D01*
X3907920Y-13929293D02*
X3907920Y-13881674D01*
X3907920Y-13881674D02*
X3917443Y-13843579D01*
X3917443Y-13843579D02*
X3926967Y-13824531D01*
X3926967Y-13824531D02*
X3936491Y-13815008D01*
X3936491Y-13815008D02*
X3955539Y-13805484D01*
X4107920Y-14005484D02*
X4107920Y-13872150D01*
X4107920Y-13891198D02*
X4117443Y-13881674D01*
X4117443Y-13881674D02*
X4136491Y-13872150D01*
X4136491Y-13872150D02*
X4165063Y-13872150D01*
X4165063Y-13872150D02*
X4184110Y-13881674D01*
X4184110Y-13881674D02*
X4193634Y-13900722D01*
X4193634Y-13900722D02*
X4193634Y-14005484D01*
X4193634Y-13900722D02*
X4203158Y-13881674D01*
X4203158Y-13881674D02*
X4222205Y-13872150D01*
X4222205Y-13872150D02*
X4250777Y-13872150D01*
X4250777Y-13872150D02*
X4269825Y-13881674D01*
X4269825Y-13881674D02*
X4279348Y-13900722D01*
X4279348Y-13900722D02*
X4279348Y-14005484D01*
X4374586Y-14005484D02*
X4374586Y-13872150D01*
X4374586Y-13891198D02*
X4384110Y-13881674D01*
X4384110Y-13881674D02*
X4403158Y-13872150D01*
X4403158Y-13872150D02*
X4431729Y-13872150D01*
X4431729Y-13872150D02*
X4450777Y-13881674D01*
X4450777Y-13881674D02*
X4460301Y-13900722D01*
X4460301Y-13900722D02*
X4460301Y-14005484D01*
X4460301Y-13900722D02*
X4469825Y-13881674D01*
X4469825Y-13881674D02*
X4488872Y-13872150D01*
X4488872Y-13872150D02*
X4517444Y-13872150D01*
X4517444Y-13872150D02*
X4536491Y-13881674D01*
X4536491Y-13881674D02*
X4546015Y-13900722D01*
X4546015Y-13900722D02*
X4546015Y-14005484D01*
X4936491Y-13795960D02*
X4765063Y-14053103D01*
X5193634Y-13805484D02*
X5212682Y-13805484D01*
X5212682Y-13805484D02*
X5231729Y-13815008D01*
X5231729Y-13815008D02*
X5241253Y-13824531D01*
X5241253Y-13824531D02*
X5250777Y-13843579D01*
X5250777Y-13843579D02*
X5260301Y-13881674D01*
X5260301Y-13881674D02*
X5260301Y-13929293D01*
X5260301Y-13929293D02*
X5250777Y-13967388D01*
X5250777Y-13967388D02*
X5241253Y-13986436D01*
X5241253Y-13986436D02*
X5231729Y-13995960D01*
X5231729Y-13995960D02*
X5212682Y-14005484D01*
X5212682Y-14005484D02*
X5193634Y-14005484D01*
X5193634Y-14005484D02*
X5174587Y-13995960D01*
X5174587Y-13995960D02*
X5165063Y-13986436D01*
X5165063Y-13986436D02*
X5155539Y-13967388D01*
X5155539Y-13967388D02*
X5146015Y-13929293D01*
X5146015Y-13929293D02*
X5146015Y-13881674D01*
X5146015Y-13881674D02*
X5155539Y-13843579D01*
X5155539Y-13843579D02*
X5165063Y-13824531D01*
X5165063Y-13824531D02*
X5174587Y-13815008D01*
X5174587Y-13815008D02*
X5193634Y-13805484D01*
X5346015Y-13986436D02*
X5355539Y-13995960D01*
X5355539Y-13995960D02*
X5346015Y-14005484D01*
X5346015Y-14005484D02*
X5336491Y-13995960D01*
X5336491Y-13995960D02*
X5346015Y-13986436D01*
X5346015Y-13986436D02*
X5346015Y-14005484D01*
X5479348Y-13805484D02*
X5498396Y-13805484D01*
X5498396Y-13805484D02*
X5517444Y-13815008D01*
X5517444Y-13815008D02*
X5526968Y-13824531D01*
X5526968Y-13824531D02*
X5536491Y-13843579D01*
X5536491Y-13843579D02*
X5546015Y-13881674D01*
X5546015Y-13881674D02*
X5546015Y-13929293D01*
X5546015Y-13929293D02*
X5536491Y-13967388D01*
X5536491Y-13967388D02*
X5526968Y-13986436D01*
X5526968Y-13986436D02*
X5517444Y-13995960D01*
X5517444Y-13995960D02*
X5498396Y-14005484D01*
X5498396Y-14005484D02*
X5479348Y-14005484D01*
X5479348Y-14005484D02*
X5460301Y-13995960D01*
X5460301Y-13995960D02*
X5450777Y-13986436D01*
X5450777Y-13986436D02*
X5441253Y-13967388D01*
X5441253Y-13967388D02*
X5431729Y-13929293D01*
X5431729Y-13929293D02*
X5431729Y-13881674D01*
X5431729Y-13881674D02*
X5441253Y-13843579D01*
X5441253Y-13843579D02*
X5450777Y-13824531D01*
X5450777Y-13824531D02*
X5460301Y-13815008D01*
X5460301Y-13815008D02*
X5479348Y-13805484D01*
X5736491Y-14005484D02*
X5622206Y-14005484D01*
X5679348Y-14005484D02*
X5679348Y-13805484D01*
X5679348Y-13805484D02*
X5660301Y-13834055D01*
X5660301Y-13834055D02*
X5641253Y-13853103D01*
X5641253Y-13853103D02*
X5622206Y-13862627D01*
X5831729Y-14005484D02*
X5869825Y-14005484D01*
X5869825Y-14005484D02*
X5888872Y-13995960D01*
X5888872Y-13995960D02*
X5898396Y-13986436D01*
X5898396Y-13986436D02*
X5917444Y-13957865D01*
X5917444Y-13957865D02*
X5926967Y-13919769D01*
X5926967Y-13919769D02*
X5926967Y-13843579D01*
X5926967Y-13843579D02*
X5917444Y-13824531D01*
X5917444Y-13824531D02*
X5907920Y-13815008D01*
X5907920Y-13815008D02*
X5888872Y-13805484D01*
X5888872Y-13805484D02*
X5850777Y-13805484D01*
X5850777Y-13805484D02*
X5831729Y-13815008D01*
X5831729Y-13815008D02*
X5822206Y-13824531D01*
X5822206Y-13824531D02*
X5812682Y-13843579D01*
X5812682Y-13843579D02*
X5812682Y-13891198D01*
X5812682Y-13891198D02*
X5822206Y-13910246D01*
X5822206Y-13910246D02*
X5831729Y-13919769D01*
X5831729Y-13919769D02*
X5850777Y-13929293D01*
X5850777Y-13929293D02*
X5888872Y-13929293D01*
X5888872Y-13929293D02*
X5907920Y-13919769D01*
X5907920Y-13919769D02*
X5917444Y-13910246D01*
X5917444Y-13910246D02*
X5926967Y-13891198D01*
X5993634Y-13805484D02*
X6126967Y-13805484D01*
X6126967Y-13805484D02*
X6041253Y-14005484D01*
X6193634Y-13805484D02*
X6193634Y-13843579D01*
X6269825Y-13805484D02*
X6269825Y-13843579D01*
X6565063Y-14081674D02*
X6555539Y-14072150D01*
X6555539Y-14072150D02*
X6536491Y-14043579D01*
X6536491Y-14043579D02*
X6526968Y-14024531D01*
X6526968Y-14024531D02*
X6517444Y-13995960D01*
X6517444Y-13995960D02*
X6507920Y-13948341D01*
X6507920Y-13948341D02*
X6507920Y-13910246D01*
X6507920Y-13910246D02*
X6517444Y-13862627D01*
X6517444Y-13862627D02*
X6526968Y-13834055D01*
X6526968Y-13834055D02*
X6536491Y-13815008D01*
X6536491Y-13815008D02*
X6555539Y-13786436D01*
X6555539Y-13786436D02*
X6565063Y-13776912D01*
X6726968Y-13872150D02*
X6726968Y-14005484D01*
X6679348Y-13795960D02*
X6631729Y-13938817D01*
X6631729Y-13938817D02*
X6755539Y-13938817D01*
X6984110Y-14005484D02*
X6984110Y-13805484D01*
X7069825Y-14005484D02*
X7069825Y-13900722D01*
X7069825Y-13900722D02*
X7060301Y-13881674D01*
X7060301Y-13881674D02*
X7041253Y-13872150D01*
X7041253Y-13872150D02*
X7012682Y-13872150D01*
X7012682Y-13872150D02*
X6993634Y-13881674D01*
X6993634Y-13881674D02*
X6984110Y-13891198D01*
X7193634Y-14005484D02*
X7174587Y-13995960D01*
X7174587Y-13995960D02*
X7165063Y-13986436D01*
X7165063Y-13986436D02*
X7155539Y-13967388D01*
X7155539Y-13967388D02*
X7155539Y-13910246D01*
X7155539Y-13910246D02*
X7165063Y-13891198D01*
X7165063Y-13891198D02*
X7174587Y-13881674D01*
X7174587Y-13881674D02*
X7193634Y-13872150D01*
X7193634Y-13872150D02*
X7222206Y-13872150D01*
X7222206Y-13872150D02*
X7241253Y-13881674D01*
X7241253Y-13881674D02*
X7250777Y-13891198D01*
X7250777Y-13891198D02*
X7260301Y-13910246D01*
X7260301Y-13910246D02*
X7260301Y-13967388D01*
X7260301Y-13967388D02*
X7250777Y-13986436D01*
X7250777Y-13986436D02*
X7241253Y-13995960D01*
X7241253Y-13995960D02*
X7222206Y-14005484D01*
X7222206Y-14005484D02*
X7193634Y-14005484D01*
X7374587Y-14005484D02*
X7355539Y-13995960D01*
X7355539Y-13995960D02*
X7346015Y-13976912D01*
X7346015Y-13976912D02*
X7346015Y-13805484D01*
X7526968Y-13995960D02*
X7507920Y-14005484D01*
X7507920Y-14005484D02*
X7469825Y-14005484D01*
X7469825Y-14005484D02*
X7450777Y-13995960D01*
X7450777Y-13995960D02*
X7441253Y-13976912D01*
X7441253Y-13976912D02*
X7441253Y-13900722D01*
X7441253Y-13900722D02*
X7450777Y-13881674D01*
X7450777Y-13881674D02*
X7469825Y-13872150D01*
X7469825Y-13872150D02*
X7507920Y-13872150D01*
X7507920Y-13872150D02*
X7526968Y-13881674D01*
X7526968Y-13881674D02*
X7536491Y-13900722D01*
X7536491Y-13900722D02*
X7536491Y-13919769D01*
X7536491Y-13919769D02*
X7441253Y-13938817D01*
X7612682Y-13995960D02*
X7631730Y-14005484D01*
X7631730Y-14005484D02*
X7669825Y-14005484D01*
X7669825Y-14005484D02*
X7688872Y-13995960D01*
X7688872Y-13995960D02*
X7698396Y-13976912D01*
X7698396Y-13976912D02*
X7698396Y-13967388D01*
X7698396Y-13967388D02*
X7688872Y-13948341D01*
X7688872Y-13948341D02*
X7669825Y-13938817D01*
X7669825Y-13938817D02*
X7641253Y-13938817D01*
X7641253Y-13938817D02*
X7622206Y-13929293D01*
X7622206Y-13929293D02*
X7612682Y-13910246D01*
X7612682Y-13910246D02*
X7612682Y-13900722D01*
X7612682Y-13900722D02*
X7622206Y-13881674D01*
X7622206Y-13881674D02*
X7641253Y-13872150D01*
X7641253Y-13872150D02*
X7669825Y-13872150D01*
X7669825Y-13872150D02*
X7688872Y-13881674D01*
X7765063Y-14081674D02*
X7774587Y-14072150D01*
X7774587Y-14072150D02*
X7793634Y-14043579D01*
X7793634Y-14043579D02*
X7803158Y-14024531D01*
X7803158Y-14024531D02*
X7812682Y-13995960D01*
X7812682Y-13995960D02*
X7822206Y-13948341D01*
X7822206Y-13948341D02*
X7822206Y-13910246D01*
X7822206Y-13910246D02*
X7812682Y-13862627D01*
X7812682Y-13862627D02*
X7803158Y-13834055D01*
X7803158Y-13834055D02*
X7793634Y-13815008D01*
X7793634Y-13815008D02*
X7774587Y-13786436D01*
X7774587Y-13786436D02*
X7765063Y-13776912D01*
D11*
X2950000Y-14138000D02*
X2950000Y-14218000D01*
X2910000Y-14178000D02*
X2990000Y-14178000D01*
D10*
X3288872Y-14069484D02*
X3307920Y-14069484D01*
X3307920Y-14069484D02*
X3326967Y-14079008D01*
X3326967Y-14079008D02*
X3336491Y-14088531D01*
X3336491Y-14088531D02*
X3346015Y-14107579D01*
X3346015Y-14107579D02*
X3355539Y-14145674D01*
X3355539Y-14145674D02*
X3355539Y-14193293D01*
X3355539Y-14193293D02*
X3346015Y-14231388D01*
X3346015Y-14231388D02*
X3336491Y-14250436D01*
X3336491Y-14250436D02*
X3326967Y-14259960D01*
X3326967Y-14259960D02*
X3307920Y-14269484D01*
X3307920Y-14269484D02*
X3288872Y-14269484D01*
X3288872Y-14269484D02*
X3269824Y-14259960D01*
X3269824Y-14259960D02*
X3260301Y-14250436D01*
X3260301Y-14250436D02*
X3250777Y-14231388D01*
X3250777Y-14231388D02*
X3241253Y-14193293D01*
X3241253Y-14193293D02*
X3241253Y-14145674D01*
X3241253Y-14145674D02*
X3250777Y-14107579D01*
X3250777Y-14107579D02*
X3260301Y-14088531D01*
X3260301Y-14088531D02*
X3269824Y-14079008D01*
X3269824Y-14079008D02*
X3288872Y-14069484D01*
X3441253Y-14250436D02*
X3450777Y-14259960D01*
X3450777Y-14259960D02*
X3441253Y-14269484D01*
X3441253Y-14269484D02*
X3431729Y-14259960D01*
X3431729Y-14259960D02*
X3441253Y-14250436D01*
X3441253Y-14250436D02*
X3441253Y-14269484D01*
X3565062Y-14155198D02*
X3546015Y-14145674D01*
X3546015Y-14145674D02*
X3536491Y-14136150D01*
X3536491Y-14136150D02*
X3526967Y-14117103D01*
X3526967Y-14117103D02*
X3526967Y-14107579D01*
X3526967Y-14107579D02*
X3536491Y-14088531D01*
X3536491Y-14088531D02*
X3546015Y-14079008D01*
X3546015Y-14079008D02*
X3565062Y-14069484D01*
X3565062Y-14069484D02*
X3603158Y-14069484D01*
X3603158Y-14069484D02*
X3622205Y-14079008D01*
X3622205Y-14079008D02*
X3631729Y-14088531D01*
X3631729Y-14088531D02*
X3641253Y-14107579D01*
X3641253Y-14107579D02*
X3641253Y-14117103D01*
X3641253Y-14117103D02*
X3631729Y-14136150D01*
X3631729Y-14136150D02*
X3622205Y-14145674D01*
X3622205Y-14145674D02*
X3603158Y-14155198D01*
X3603158Y-14155198D02*
X3565062Y-14155198D01*
X3565062Y-14155198D02*
X3546015Y-14164722D01*
X3546015Y-14164722D02*
X3536491Y-14174246D01*
X3536491Y-14174246D02*
X3526967Y-14193293D01*
X3526967Y-14193293D02*
X3526967Y-14231388D01*
X3526967Y-14231388D02*
X3536491Y-14250436D01*
X3536491Y-14250436D02*
X3546015Y-14259960D01*
X3546015Y-14259960D02*
X3565062Y-14269484D01*
X3565062Y-14269484D02*
X3603158Y-14269484D01*
X3603158Y-14269484D02*
X3622205Y-14259960D01*
X3622205Y-14259960D02*
X3631729Y-14250436D01*
X3631729Y-14250436D02*
X3641253Y-14231388D01*
X3641253Y-14231388D02*
X3641253Y-14193293D01*
X3641253Y-14193293D02*
X3631729Y-14174246D01*
X3631729Y-14174246D02*
X3622205Y-14164722D01*
X3622205Y-14164722D02*
X3603158Y-14155198D01*
X3765062Y-14069484D02*
X3784110Y-14069484D01*
X3784110Y-14069484D02*
X3803158Y-14079008D01*
X3803158Y-14079008D02*
X3812682Y-14088531D01*
X3812682Y-14088531D02*
X3822205Y-14107579D01*
X3822205Y-14107579D02*
X3831729Y-14145674D01*
X3831729Y-14145674D02*
X3831729Y-14193293D01*
X3831729Y-14193293D02*
X3822205Y-14231388D01*
X3822205Y-14231388D02*
X3812682Y-14250436D01*
X3812682Y-14250436D02*
X3803158Y-14259960D01*
X3803158Y-14259960D02*
X3784110Y-14269484D01*
X3784110Y-14269484D02*
X3765062Y-14269484D01*
X3765062Y-14269484D02*
X3746015Y-14259960D01*
X3746015Y-14259960D02*
X3736491Y-14250436D01*
X3736491Y-14250436D02*
X3726967Y-14231388D01*
X3726967Y-14231388D02*
X3717443Y-14193293D01*
X3717443Y-14193293D02*
X3717443Y-14145674D01*
X3717443Y-14145674D02*
X3726967Y-14107579D01*
X3726967Y-14107579D02*
X3736491Y-14088531D01*
X3736491Y-14088531D02*
X3746015Y-14079008D01*
X3746015Y-14079008D02*
X3765062Y-14069484D01*
X3955539Y-14069484D02*
X3974586Y-14069484D01*
X3974586Y-14069484D02*
X3993634Y-14079008D01*
X3993634Y-14079008D02*
X4003158Y-14088531D01*
X4003158Y-14088531D02*
X4012682Y-14107579D01*
X4012682Y-14107579D02*
X4022205Y-14145674D01*
X4022205Y-14145674D02*
X4022205Y-14193293D01*
X4022205Y-14193293D02*
X4012682Y-14231388D01*
X4012682Y-14231388D02*
X4003158Y-14250436D01*
X4003158Y-14250436D02*
X3993634Y-14259960D01*
X3993634Y-14259960D02*
X3974586Y-14269484D01*
X3974586Y-14269484D02*
X3955539Y-14269484D01*
X3955539Y-14269484D02*
X3936491Y-14259960D01*
X3936491Y-14259960D02*
X3926967Y-14250436D01*
X3926967Y-14250436D02*
X3917443Y-14231388D01*
X3917443Y-14231388D02*
X3907920Y-14193293D01*
X3907920Y-14193293D02*
X3907920Y-14145674D01*
X3907920Y-14145674D02*
X3917443Y-14107579D01*
X3917443Y-14107579D02*
X3926967Y-14088531D01*
X3926967Y-14088531D02*
X3936491Y-14079008D01*
X3936491Y-14079008D02*
X3955539Y-14069484D01*
X4107920Y-14269484D02*
X4107920Y-14136150D01*
X4107920Y-14155198D02*
X4117443Y-14145674D01*
X4117443Y-14145674D02*
X4136491Y-14136150D01*
X4136491Y-14136150D02*
X4165063Y-14136150D01*
X4165063Y-14136150D02*
X4184110Y-14145674D01*
X4184110Y-14145674D02*
X4193634Y-14164722D01*
X4193634Y-14164722D02*
X4193634Y-14269484D01*
X4193634Y-14164722D02*
X4203158Y-14145674D01*
X4203158Y-14145674D02*
X4222205Y-14136150D01*
X4222205Y-14136150D02*
X4250777Y-14136150D01*
X4250777Y-14136150D02*
X4269825Y-14145674D01*
X4269825Y-14145674D02*
X4279348Y-14164722D01*
X4279348Y-14164722D02*
X4279348Y-14269484D01*
X4374586Y-14269484D02*
X4374586Y-14136150D01*
X4374586Y-14155198D02*
X4384110Y-14145674D01*
X4384110Y-14145674D02*
X4403158Y-14136150D01*
X4403158Y-14136150D02*
X4431729Y-14136150D01*
X4431729Y-14136150D02*
X4450777Y-14145674D01*
X4450777Y-14145674D02*
X4460301Y-14164722D01*
X4460301Y-14164722D02*
X4460301Y-14269484D01*
X4460301Y-14164722D02*
X4469825Y-14145674D01*
X4469825Y-14145674D02*
X4488872Y-14136150D01*
X4488872Y-14136150D02*
X4517444Y-14136150D01*
X4517444Y-14136150D02*
X4536491Y-14145674D01*
X4536491Y-14145674D02*
X4546015Y-14164722D01*
X4546015Y-14164722D02*
X4546015Y-14269484D01*
X4936491Y-14059960D02*
X4765063Y-14317103D01*
X5193634Y-14069484D02*
X5212682Y-14069484D01*
X5212682Y-14069484D02*
X5231729Y-14079008D01*
X5231729Y-14079008D02*
X5241253Y-14088531D01*
X5241253Y-14088531D02*
X5250777Y-14107579D01*
X5250777Y-14107579D02*
X5260301Y-14145674D01*
X5260301Y-14145674D02*
X5260301Y-14193293D01*
X5260301Y-14193293D02*
X5250777Y-14231388D01*
X5250777Y-14231388D02*
X5241253Y-14250436D01*
X5241253Y-14250436D02*
X5231729Y-14259960D01*
X5231729Y-14259960D02*
X5212682Y-14269484D01*
X5212682Y-14269484D02*
X5193634Y-14269484D01*
X5193634Y-14269484D02*
X5174587Y-14259960D01*
X5174587Y-14259960D02*
X5165063Y-14250436D01*
X5165063Y-14250436D02*
X5155539Y-14231388D01*
X5155539Y-14231388D02*
X5146015Y-14193293D01*
X5146015Y-14193293D02*
X5146015Y-14145674D01*
X5146015Y-14145674D02*
X5155539Y-14107579D01*
X5155539Y-14107579D02*
X5165063Y-14088531D01*
X5165063Y-14088531D02*
X5174587Y-14079008D01*
X5174587Y-14079008D02*
X5193634Y-14069484D01*
X5346015Y-14250436D02*
X5355539Y-14259960D01*
X5355539Y-14259960D02*
X5346015Y-14269484D01*
X5346015Y-14269484D02*
X5336491Y-14259960D01*
X5336491Y-14259960D02*
X5346015Y-14250436D01*
X5346015Y-14250436D02*
X5346015Y-14269484D01*
X5479348Y-14069484D02*
X5498396Y-14069484D01*
X5498396Y-14069484D02*
X5517444Y-14079008D01*
X5517444Y-14079008D02*
X5526968Y-14088531D01*
X5526968Y-14088531D02*
X5536491Y-14107579D01*
X5536491Y-14107579D02*
X5546015Y-14145674D01*
X5546015Y-14145674D02*
X5546015Y-14193293D01*
X5546015Y-14193293D02*
X5536491Y-14231388D01*
X5536491Y-14231388D02*
X5526968Y-14250436D01*
X5526968Y-14250436D02*
X5517444Y-14259960D01*
X5517444Y-14259960D02*
X5498396Y-14269484D01*
X5498396Y-14269484D02*
X5479348Y-14269484D01*
X5479348Y-14269484D02*
X5460301Y-14259960D01*
X5460301Y-14259960D02*
X5450777Y-14250436D01*
X5450777Y-14250436D02*
X5441253Y-14231388D01*
X5441253Y-14231388D02*
X5431729Y-14193293D01*
X5431729Y-14193293D02*
X5431729Y-14145674D01*
X5431729Y-14145674D02*
X5441253Y-14107579D01*
X5441253Y-14107579D02*
X5450777Y-14088531D01*
X5450777Y-14088531D02*
X5460301Y-14079008D01*
X5460301Y-14079008D02*
X5479348Y-14069484D01*
X5612682Y-14069484D02*
X5736491Y-14069484D01*
X5736491Y-14069484D02*
X5669825Y-14145674D01*
X5669825Y-14145674D02*
X5698396Y-14145674D01*
X5698396Y-14145674D02*
X5717444Y-14155198D01*
X5717444Y-14155198D02*
X5726967Y-14164722D01*
X5726967Y-14164722D02*
X5736491Y-14183769D01*
X5736491Y-14183769D02*
X5736491Y-14231388D01*
X5736491Y-14231388D02*
X5726967Y-14250436D01*
X5726967Y-14250436D02*
X5717444Y-14259960D01*
X5717444Y-14259960D02*
X5698396Y-14269484D01*
X5698396Y-14269484D02*
X5641253Y-14269484D01*
X5641253Y-14269484D02*
X5622206Y-14259960D01*
X5622206Y-14259960D02*
X5612682Y-14250436D01*
X5926967Y-14269484D02*
X5812682Y-14269484D01*
X5869825Y-14269484D02*
X5869825Y-14069484D01*
X5869825Y-14069484D02*
X5850777Y-14098055D01*
X5850777Y-14098055D02*
X5831729Y-14117103D01*
X5831729Y-14117103D02*
X5812682Y-14126627D01*
X6107920Y-14069484D02*
X6012682Y-14069484D01*
X6012682Y-14069484D02*
X6003158Y-14164722D01*
X6003158Y-14164722D02*
X6012682Y-14155198D01*
X6012682Y-14155198D02*
X6031729Y-14145674D01*
X6031729Y-14145674D02*
X6079348Y-14145674D01*
X6079348Y-14145674D02*
X6098396Y-14155198D01*
X6098396Y-14155198D02*
X6107920Y-14164722D01*
X6107920Y-14164722D02*
X6117444Y-14183769D01*
X6117444Y-14183769D02*
X6117444Y-14231388D01*
X6117444Y-14231388D02*
X6107920Y-14250436D01*
X6107920Y-14250436D02*
X6098396Y-14259960D01*
X6098396Y-14259960D02*
X6079348Y-14269484D01*
X6079348Y-14269484D02*
X6031729Y-14269484D01*
X6031729Y-14269484D02*
X6012682Y-14259960D01*
X6012682Y-14259960D02*
X6003158Y-14250436D01*
X6193634Y-14069484D02*
X6193634Y-14107579D01*
X6269825Y-14069484D02*
X6269825Y-14107579D01*
X6565063Y-14345674D02*
X6555539Y-14336150D01*
X6555539Y-14336150D02*
X6536491Y-14307579D01*
X6536491Y-14307579D02*
X6526968Y-14288531D01*
X6526968Y-14288531D02*
X6517444Y-14259960D01*
X6517444Y-14259960D02*
X6507920Y-14212341D01*
X6507920Y-14212341D02*
X6507920Y-14174246D01*
X6507920Y-14174246D02*
X6517444Y-14126627D01*
X6517444Y-14126627D02*
X6526968Y-14098055D01*
X6526968Y-14098055D02*
X6536491Y-14079008D01*
X6536491Y-14079008D02*
X6555539Y-14050436D01*
X6555539Y-14050436D02*
X6565063Y-14040912D01*
X6622206Y-14069484D02*
X6746015Y-14069484D01*
X6746015Y-14069484D02*
X6679348Y-14145674D01*
X6679348Y-14145674D02*
X6707920Y-14145674D01*
X6707920Y-14145674D02*
X6726968Y-14155198D01*
X6726968Y-14155198D02*
X6736491Y-14164722D01*
X6736491Y-14164722D02*
X6746015Y-14183769D01*
X6746015Y-14183769D02*
X6746015Y-14231388D01*
X6746015Y-14231388D02*
X6736491Y-14250436D01*
X6736491Y-14250436D02*
X6726968Y-14259960D01*
X6726968Y-14259960D02*
X6707920Y-14269484D01*
X6707920Y-14269484D02*
X6650777Y-14269484D01*
X6650777Y-14269484D02*
X6631729Y-14259960D01*
X6631729Y-14259960D02*
X6622206Y-14250436D01*
X6917444Y-14069484D02*
X6879348Y-14069484D01*
X6879348Y-14069484D02*
X6860301Y-14079008D01*
X6860301Y-14079008D02*
X6850777Y-14088531D01*
X6850777Y-14088531D02*
X6831729Y-14117103D01*
X6831729Y-14117103D02*
X6822206Y-14155198D01*
X6822206Y-14155198D02*
X6822206Y-14231388D01*
X6822206Y-14231388D02*
X6831729Y-14250436D01*
X6831729Y-14250436D02*
X6841253Y-14259960D01*
X6841253Y-14259960D02*
X6860301Y-14269484D01*
X6860301Y-14269484D02*
X6898396Y-14269484D01*
X6898396Y-14269484D02*
X6917444Y-14259960D01*
X6917444Y-14259960D02*
X6926968Y-14250436D01*
X6926968Y-14250436D02*
X6936491Y-14231388D01*
X6936491Y-14231388D02*
X6936491Y-14183769D01*
X6936491Y-14183769D02*
X6926968Y-14164722D01*
X6926968Y-14164722D02*
X6917444Y-14155198D01*
X6917444Y-14155198D02*
X6898396Y-14145674D01*
X6898396Y-14145674D02*
X6860301Y-14145674D01*
X6860301Y-14145674D02*
X6841253Y-14155198D01*
X6841253Y-14155198D02*
X6831729Y-14164722D01*
X6831729Y-14164722D02*
X6822206Y-14183769D01*
X7174587Y-14269484D02*
X7174587Y-14069484D01*
X7260301Y-14269484D02*
X7260301Y-14164722D01*
X7260301Y-14164722D02*
X7250777Y-14145674D01*
X7250777Y-14145674D02*
X7231730Y-14136150D01*
X7231730Y-14136150D02*
X7203158Y-14136150D01*
X7203158Y-14136150D02*
X7184110Y-14145674D01*
X7184110Y-14145674D02*
X7174587Y-14155198D01*
X7384110Y-14269484D02*
X7365063Y-14259960D01*
X7365063Y-14259960D02*
X7355539Y-14250436D01*
X7355539Y-14250436D02*
X7346015Y-14231388D01*
X7346015Y-14231388D02*
X7346015Y-14174246D01*
X7346015Y-14174246D02*
X7355539Y-14155198D01*
X7355539Y-14155198D02*
X7365063Y-14145674D01*
X7365063Y-14145674D02*
X7384110Y-14136150D01*
X7384110Y-14136150D02*
X7412682Y-14136150D01*
X7412682Y-14136150D02*
X7431730Y-14145674D01*
X7431730Y-14145674D02*
X7441253Y-14155198D01*
X7441253Y-14155198D02*
X7450777Y-14174246D01*
X7450777Y-14174246D02*
X7450777Y-14231388D01*
X7450777Y-14231388D02*
X7441253Y-14250436D01*
X7441253Y-14250436D02*
X7431730Y-14259960D01*
X7431730Y-14259960D02*
X7412682Y-14269484D01*
X7412682Y-14269484D02*
X7384110Y-14269484D01*
X7565063Y-14269484D02*
X7546015Y-14259960D01*
X7546015Y-14259960D02*
X7536491Y-14240912D01*
X7536491Y-14240912D02*
X7536491Y-14069484D01*
X7717444Y-14259960D02*
X7698396Y-14269484D01*
X7698396Y-14269484D02*
X7660301Y-14269484D01*
X7660301Y-14269484D02*
X7641253Y-14259960D01*
X7641253Y-14259960D02*
X7631730Y-14240912D01*
X7631730Y-14240912D02*
X7631730Y-14164722D01*
X7631730Y-14164722D02*
X7641253Y-14145674D01*
X7641253Y-14145674D02*
X7660301Y-14136150D01*
X7660301Y-14136150D02*
X7698396Y-14136150D01*
X7698396Y-14136150D02*
X7717444Y-14145674D01*
X7717444Y-14145674D02*
X7726968Y-14164722D01*
X7726968Y-14164722D02*
X7726968Y-14183769D01*
X7726968Y-14183769D02*
X7631730Y-14202817D01*
X7803158Y-14259960D02*
X7822206Y-14269484D01*
X7822206Y-14269484D02*
X7860301Y-14269484D01*
X7860301Y-14269484D02*
X7879349Y-14259960D01*
X7879349Y-14259960D02*
X7888872Y-14240912D01*
X7888872Y-14240912D02*
X7888872Y-14231388D01*
X7888872Y-14231388D02*
X7879349Y-14212341D01*
X7879349Y-14212341D02*
X7860301Y-14202817D01*
X7860301Y-14202817D02*
X7831730Y-14202817D01*
X7831730Y-14202817D02*
X7812682Y-14193293D01*
X7812682Y-14193293D02*
X7803158Y-14174246D01*
X7803158Y-14174246D02*
X7803158Y-14164722D01*
X7803158Y-14164722D02*
X7812682Y-14145674D01*
X7812682Y-14145674D02*
X7831730Y-14136150D01*
X7831730Y-14136150D02*
X7860301Y-14136150D01*
X7860301Y-14136150D02*
X7879349Y-14145674D01*
X7955539Y-14345674D02*
X7965063Y-14336150D01*
X7965063Y-14336150D02*
X7984111Y-14307579D01*
X7984111Y-14307579D02*
X7993634Y-14288531D01*
X7993634Y-14288531D02*
X8003158Y-14259960D01*
X8003158Y-14259960D02*
X8012682Y-14212341D01*
X8012682Y-14212341D02*
X8012682Y-14174246D01*
X8012682Y-14174246D02*
X8003158Y-14126627D01*
X8003158Y-14126627D02*
X7993634Y-14098055D01*
X7993634Y-14098055D02*
X7984111Y-14079008D01*
X7984111Y-14079008D02*
X7965063Y-14050436D01*
X7965063Y-14050436D02*
X7955539Y-14040912D01*
D11*
X2976820Y-14473820D02*
X2976820Y-14410180D01*
X2913180Y-14410180D01*
X2913180Y-14473820D01*
X2976820Y-14473820D01*
D10*
X3288872Y-14333484D02*
X3307920Y-14333484D01*
X3307920Y-14333484D02*
X3326967Y-14343008D01*
X3326967Y-14343008D02*
X3336491Y-14352531D01*
X3336491Y-14352531D02*
X3346015Y-14371579D01*
X3346015Y-14371579D02*
X3355539Y-14409674D01*
X3355539Y-14409674D02*
X3355539Y-14457293D01*
X3355539Y-14457293D02*
X3346015Y-14495388D01*
X3346015Y-14495388D02*
X3336491Y-14514436D01*
X3336491Y-14514436D02*
X3326967Y-14523960D01*
X3326967Y-14523960D02*
X3307920Y-14533484D01*
X3307920Y-14533484D02*
X3288872Y-14533484D01*
X3288872Y-14533484D02*
X3269824Y-14523960D01*
X3269824Y-14523960D02*
X3260301Y-14514436D01*
X3260301Y-14514436D02*
X3250777Y-14495388D01*
X3250777Y-14495388D02*
X3241253Y-14457293D01*
X3241253Y-14457293D02*
X3241253Y-14409674D01*
X3241253Y-14409674D02*
X3250777Y-14371579D01*
X3250777Y-14371579D02*
X3260301Y-14352531D01*
X3260301Y-14352531D02*
X3269824Y-14343008D01*
X3269824Y-14343008D02*
X3288872Y-14333484D01*
X3441253Y-14514436D02*
X3450777Y-14523960D01*
X3450777Y-14523960D02*
X3441253Y-14533484D01*
X3441253Y-14533484D02*
X3431729Y-14523960D01*
X3431729Y-14523960D02*
X3441253Y-14514436D01*
X3441253Y-14514436D02*
X3441253Y-14533484D01*
X3546015Y-14533484D02*
X3584110Y-14533484D01*
X3584110Y-14533484D02*
X3603158Y-14523960D01*
X3603158Y-14523960D02*
X3612682Y-14514436D01*
X3612682Y-14514436D02*
X3631729Y-14485865D01*
X3631729Y-14485865D02*
X3641253Y-14447769D01*
X3641253Y-14447769D02*
X3641253Y-14371579D01*
X3641253Y-14371579D02*
X3631729Y-14352531D01*
X3631729Y-14352531D02*
X3622205Y-14343008D01*
X3622205Y-14343008D02*
X3603158Y-14333484D01*
X3603158Y-14333484D02*
X3565062Y-14333484D01*
X3565062Y-14333484D02*
X3546015Y-14343008D01*
X3546015Y-14343008D02*
X3536491Y-14352531D01*
X3536491Y-14352531D02*
X3526967Y-14371579D01*
X3526967Y-14371579D02*
X3526967Y-14419198D01*
X3526967Y-14419198D02*
X3536491Y-14438246D01*
X3536491Y-14438246D02*
X3546015Y-14447769D01*
X3546015Y-14447769D02*
X3565062Y-14457293D01*
X3565062Y-14457293D02*
X3603158Y-14457293D01*
X3603158Y-14457293D02*
X3622205Y-14447769D01*
X3622205Y-14447769D02*
X3631729Y-14438246D01*
X3631729Y-14438246D02*
X3641253Y-14419198D01*
X3765062Y-14333484D02*
X3784110Y-14333484D01*
X3784110Y-14333484D02*
X3803158Y-14343008D01*
X3803158Y-14343008D02*
X3812682Y-14352531D01*
X3812682Y-14352531D02*
X3822205Y-14371579D01*
X3822205Y-14371579D02*
X3831729Y-14409674D01*
X3831729Y-14409674D02*
X3831729Y-14457293D01*
X3831729Y-14457293D02*
X3822205Y-14495388D01*
X3822205Y-14495388D02*
X3812682Y-14514436D01*
X3812682Y-14514436D02*
X3803158Y-14523960D01*
X3803158Y-14523960D02*
X3784110Y-14533484D01*
X3784110Y-14533484D02*
X3765062Y-14533484D01*
X3765062Y-14533484D02*
X3746015Y-14523960D01*
X3746015Y-14523960D02*
X3736491Y-14514436D01*
X3736491Y-14514436D02*
X3726967Y-14495388D01*
X3726967Y-14495388D02*
X3717443Y-14457293D01*
X3717443Y-14457293D02*
X3717443Y-14409674D01*
X3717443Y-14409674D02*
X3726967Y-14371579D01*
X3726967Y-14371579D02*
X3736491Y-14352531D01*
X3736491Y-14352531D02*
X3746015Y-14343008D01*
X3746015Y-14343008D02*
X3765062Y-14333484D01*
X3955539Y-14333484D02*
X3974586Y-14333484D01*
X3974586Y-14333484D02*
X3993634Y-14343008D01*
X3993634Y-14343008D02*
X4003158Y-14352531D01*
X4003158Y-14352531D02*
X4012682Y-14371579D01*
X4012682Y-14371579D02*
X4022205Y-14409674D01*
X4022205Y-14409674D02*
X4022205Y-14457293D01*
X4022205Y-14457293D02*
X4012682Y-14495388D01*
X4012682Y-14495388D02*
X4003158Y-14514436D01*
X4003158Y-14514436D02*
X3993634Y-14523960D01*
X3993634Y-14523960D02*
X3974586Y-14533484D01*
X3974586Y-14533484D02*
X3955539Y-14533484D01*
X3955539Y-14533484D02*
X3936491Y-14523960D01*
X3936491Y-14523960D02*
X3926967Y-14514436D01*
X3926967Y-14514436D02*
X3917443Y-14495388D01*
X3917443Y-14495388D02*
X3907920Y-14457293D01*
X3907920Y-14457293D02*
X3907920Y-14409674D01*
X3907920Y-14409674D02*
X3917443Y-14371579D01*
X3917443Y-14371579D02*
X3926967Y-14352531D01*
X3926967Y-14352531D02*
X3936491Y-14343008D01*
X3936491Y-14343008D02*
X3955539Y-14333484D01*
X4107920Y-14533484D02*
X4107920Y-14400150D01*
X4107920Y-14419198D02*
X4117443Y-14409674D01*
X4117443Y-14409674D02*
X4136491Y-14400150D01*
X4136491Y-14400150D02*
X4165063Y-14400150D01*
X4165063Y-14400150D02*
X4184110Y-14409674D01*
X4184110Y-14409674D02*
X4193634Y-14428722D01*
X4193634Y-14428722D02*
X4193634Y-14533484D01*
X4193634Y-14428722D02*
X4203158Y-14409674D01*
X4203158Y-14409674D02*
X4222205Y-14400150D01*
X4222205Y-14400150D02*
X4250777Y-14400150D01*
X4250777Y-14400150D02*
X4269825Y-14409674D01*
X4269825Y-14409674D02*
X4279348Y-14428722D01*
X4279348Y-14428722D02*
X4279348Y-14533484D01*
X4374586Y-14533484D02*
X4374586Y-14400150D01*
X4374586Y-14419198D02*
X4384110Y-14409674D01*
X4384110Y-14409674D02*
X4403158Y-14400150D01*
X4403158Y-14400150D02*
X4431729Y-14400150D01*
X4431729Y-14400150D02*
X4450777Y-14409674D01*
X4450777Y-14409674D02*
X4460301Y-14428722D01*
X4460301Y-14428722D02*
X4460301Y-14533484D01*
X4460301Y-14428722D02*
X4469825Y-14409674D01*
X4469825Y-14409674D02*
X4488872Y-14400150D01*
X4488872Y-14400150D02*
X4517444Y-14400150D01*
X4517444Y-14400150D02*
X4536491Y-14409674D01*
X4536491Y-14409674D02*
X4546015Y-14428722D01*
X4546015Y-14428722D02*
X4546015Y-14533484D01*
X4936491Y-14323960D02*
X4765063Y-14581103D01*
X5193634Y-14333484D02*
X5212682Y-14333484D01*
X5212682Y-14333484D02*
X5231729Y-14343008D01*
X5231729Y-14343008D02*
X5241253Y-14352531D01*
X5241253Y-14352531D02*
X5250777Y-14371579D01*
X5250777Y-14371579D02*
X5260301Y-14409674D01*
X5260301Y-14409674D02*
X5260301Y-14457293D01*
X5260301Y-14457293D02*
X5250777Y-14495388D01*
X5250777Y-14495388D02*
X5241253Y-14514436D01*
X5241253Y-14514436D02*
X5231729Y-14523960D01*
X5231729Y-14523960D02*
X5212682Y-14533484D01*
X5212682Y-14533484D02*
X5193634Y-14533484D01*
X5193634Y-14533484D02*
X5174587Y-14523960D01*
X5174587Y-14523960D02*
X5165063Y-14514436D01*
X5165063Y-14514436D02*
X5155539Y-14495388D01*
X5155539Y-14495388D02*
X5146015Y-14457293D01*
X5146015Y-14457293D02*
X5146015Y-14409674D01*
X5146015Y-14409674D02*
X5155539Y-14371579D01*
X5155539Y-14371579D02*
X5165063Y-14352531D01*
X5165063Y-14352531D02*
X5174587Y-14343008D01*
X5174587Y-14343008D02*
X5193634Y-14333484D01*
X5346015Y-14514436D02*
X5355539Y-14523960D01*
X5355539Y-14523960D02*
X5346015Y-14533484D01*
X5346015Y-14533484D02*
X5336491Y-14523960D01*
X5336491Y-14523960D02*
X5346015Y-14514436D01*
X5346015Y-14514436D02*
X5346015Y-14533484D01*
X5479348Y-14333484D02*
X5498396Y-14333484D01*
X5498396Y-14333484D02*
X5517444Y-14343008D01*
X5517444Y-14343008D02*
X5526968Y-14352531D01*
X5526968Y-14352531D02*
X5536491Y-14371579D01*
X5536491Y-14371579D02*
X5546015Y-14409674D01*
X5546015Y-14409674D02*
X5546015Y-14457293D01*
X5546015Y-14457293D02*
X5536491Y-14495388D01*
X5536491Y-14495388D02*
X5526968Y-14514436D01*
X5526968Y-14514436D02*
X5517444Y-14523960D01*
X5517444Y-14523960D02*
X5498396Y-14533484D01*
X5498396Y-14533484D02*
X5479348Y-14533484D01*
X5479348Y-14533484D02*
X5460301Y-14523960D01*
X5460301Y-14523960D02*
X5450777Y-14514436D01*
X5450777Y-14514436D02*
X5441253Y-14495388D01*
X5441253Y-14495388D02*
X5431729Y-14457293D01*
X5431729Y-14457293D02*
X5431729Y-14409674D01*
X5431729Y-14409674D02*
X5441253Y-14371579D01*
X5441253Y-14371579D02*
X5450777Y-14352531D01*
X5450777Y-14352531D02*
X5460301Y-14343008D01*
X5460301Y-14343008D02*
X5479348Y-14333484D01*
X5612682Y-14333484D02*
X5736491Y-14333484D01*
X5736491Y-14333484D02*
X5669825Y-14409674D01*
X5669825Y-14409674D02*
X5698396Y-14409674D01*
X5698396Y-14409674D02*
X5717444Y-14419198D01*
X5717444Y-14419198D02*
X5726967Y-14428722D01*
X5726967Y-14428722D02*
X5736491Y-14447769D01*
X5736491Y-14447769D02*
X5736491Y-14495388D01*
X5736491Y-14495388D02*
X5726967Y-14514436D01*
X5726967Y-14514436D02*
X5717444Y-14523960D01*
X5717444Y-14523960D02*
X5698396Y-14533484D01*
X5698396Y-14533484D02*
X5641253Y-14533484D01*
X5641253Y-14533484D02*
X5622206Y-14523960D01*
X5622206Y-14523960D02*
X5612682Y-14514436D01*
X5917444Y-14333484D02*
X5822206Y-14333484D01*
X5822206Y-14333484D02*
X5812682Y-14428722D01*
X5812682Y-14428722D02*
X5822206Y-14419198D01*
X5822206Y-14419198D02*
X5841253Y-14409674D01*
X5841253Y-14409674D02*
X5888872Y-14409674D01*
X5888872Y-14409674D02*
X5907920Y-14419198D01*
X5907920Y-14419198D02*
X5917444Y-14428722D01*
X5917444Y-14428722D02*
X5926967Y-14447769D01*
X5926967Y-14447769D02*
X5926967Y-14495388D01*
X5926967Y-14495388D02*
X5917444Y-14514436D01*
X5917444Y-14514436D02*
X5907920Y-14523960D01*
X5907920Y-14523960D02*
X5888872Y-14533484D01*
X5888872Y-14533484D02*
X5841253Y-14533484D01*
X5841253Y-14533484D02*
X5822206Y-14523960D01*
X5822206Y-14523960D02*
X5812682Y-14514436D01*
X6098396Y-14400150D02*
X6098396Y-14533484D01*
X6050777Y-14323960D02*
X6003158Y-14466817D01*
X6003158Y-14466817D02*
X6126967Y-14466817D01*
X6193634Y-14333484D02*
X6193634Y-14371579D01*
X6269825Y-14333484D02*
X6269825Y-14371579D01*
X6565063Y-14609674D02*
X6555539Y-14600150D01*
X6555539Y-14600150D02*
X6536491Y-14571579D01*
X6536491Y-14571579D02*
X6526968Y-14552531D01*
X6526968Y-14552531D02*
X6517444Y-14523960D01*
X6517444Y-14523960D02*
X6507920Y-14476341D01*
X6507920Y-14476341D02*
X6507920Y-14438246D01*
X6507920Y-14438246D02*
X6517444Y-14390627D01*
X6517444Y-14390627D02*
X6526968Y-14362055D01*
X6526968Y-14362055D02*
X6536491Y-14343008D01*
X6536491Y-14343008D02*
X6555539Y-14314436D01*
X6555539Y-14314436D02*
X6565063Y-14304912D01*
X6746015Y-14533484D02*
X6631729Y-14533484D01*
X6688872Y-14533484D02*
X6688872Y-14333484D01*
X6688872Y-14333484D02*
X6669825Y-14362055D01*
X6669825Y-14362055D02*
X6650777Y-14381103D01*
X6650777Y-14381103D02*
X6631729Y-14390627D01*
X6822206Y-14352531D02*
X6831729Y-14343008D01*
X6831729Y-14343008D02*
X6850777Y-14333484D01*
X6850777Y-14333484D02*
X6898396Y-14333484D01*
X6898396Y-14333484D02*
X6917444Y-14343008D01*
X6917444Y-14343008D02*
X6926968Y-14352531D01*
X6926968Y-14352531D02*
X6936491Y-14371579D01*
X6936491Y-14371579D02*
X6936491Y-14390627D01*
X6936491Y-14390627D02*
X6926968Y-14419198D01*
X6926968Y-14419198D02*
X6812682Y-14533484D01*
X6812682Y-14533484D02*
X6936491Y-14533484D01*
X7174587Y-14533484D02*
X7174587Y-14333484D01*
X7260301Y-14533484D02*
X7260301Y-14428722D01*
X7260301Y-14428722D02*
X7250777Y-14409674D01*
X7250777Y-14409674D02*
X7231730Y-14400150D01*
X7231730Y-14400150D02*
X7203158Y-14400150D01*
X7203158Y-14400150D02*
X7184110Y-14409674D01*
X7184110Y-14409674D02*
X7174587Y-14419198D01*
X7384110Y-14533484D02*
X7365063Y-14523960D01*
X7365063Y-14523960D02*
X7355539Y-14514436D01*
X7355539Y-14514436D02*
X7346015Y-14495388D01*
X7346015Y-14495388D02*
X7346015Y-14438246D01*
X7346015Y-14438246D02*
X7355539Y-14419198D01*
X7355539Y-14419198D02*
X7365063Y-14409674D01*
X7365063Y-14409674D02*
X7384110Y-14400150D01*
X7384110Y-14400150D02*
X7412682Y-14400150D01*
X7412682Y-14400150D02*
X7431730Y-14409674D01*
X7431730Y-14409674D02*
X7441253Y-14419198D01*
X7441253Y-14419198D02*
X7450777Y-14438246D01*
X7450777Y-14438246D02*
X7450777Y-14495388D01*
X7450777Y-14495388D02*
X7441253Y-14514436D01*
X7441253Y-14514436D02*
X7431730Y-14523960D01*
X7431730Y-14523960D02*
X7412682Y-14533484D01*
X7412682Y-14533484D02*
X7384110Y-14533484D01*
X7565063Y-14533484D02*
X7546015Y-14523960D01*
X7546015Y-14523960D02*
X7536491Y-14504912D01*
X7536491Y-14504912D02*
X7536491Y-14333484D01*
X7717444Y-14523960D02*
X7698396Y-14533484D01*
X7698396Y-14533484D02*
X7660301Y-14533484D01*
X7660301Y-14533484D02*
X7641253Y-14523960D01*
X7641253Y-14523960D02*
X7631730Y-14504912D01*
X7631730Y-14504912D02*
X7631730Y-14428722D01*
X7631730Y-14428722D02*
X7641253Y-14409674D01*
X7641253Y-14409674D02*
X7660301Y-14400150D01*
X7660301Y-14400150D02*
X7698396Y-14400150D01*
X7698396Y-14400150D02*
X7717444Y-14409674D01*
X7717444Y-14409674D02*
X7726968Y-14428722D01*
X7726968Y-14428722D02*
X7726968Y-14447769D01*
X7726968Y-14447769D02*
X7631730Y-14466817D01*
X7803158Y-14523960D02*
X7822206Y-14533484D01*
X7822206Y-14533484D02*
X7860301Y-14533484D01*
X7860301Y-14533484D02*
X7879349Y-14523960D01*
X7879349Y-14523960D02*
X7888872Y-14504912D01*
X7888872Y-14504912D02*
X7888872Y-14495388D01*
X7888872Y-14495388D02*
X7879349Y-14476341D01*
X7879349Y-14476341D02*
X7860301Y-14466817D01*
X7860301Y-14466817D02*
X7831730Y-14466817D01*
X7831730Y-14466817D02*
X7812682Y-14457293D01*
X7812682Y-14457293D02*
X7803158Y-14438246D01*
X7803158Y-14438246D02*
X7803158Y-14428722D01*
X7803158Y-14428722D02*
X7812682Y-14409674D01*
X7812682Y-14409674D02*
X7831730Y-14400150D01*
X7831730Y-14400150D02*
X7860301Y-14400150D01*
X7860301Y-14400150D02*
X7879349Y-14409674D01*
X7955539Y-14609674D02*
X7965063Y-14600150D01*
X7965063Y-14600150D02*
X7984111Y-14571579D01*
X7984111Y-14571579D02*
X7993634Y-14552531D01*
X7993634Y-14552531D02*
X8003158Y-14523960D01*
X8003158Y-14523960D02*
X8012682Y-14476341D01*
X8012682Y-14476341D02*
X8012682Y-14438246D01*
X8012682Y-14438246D02*
X8003158Y-14390627D01*
X8003158Y-14390627D02*
X7993634Y-14362055D01*
X7993634Y-14362055D02*
X7984111Y-14343008D01*
X7984111Y-14343008D02*
X7965063Y-14314436D01*
X7965063Y-14314436D02*
X7955539Y-14304912D01*
D11*
X2940000Y-14756000D02*
X2990000Y-14706000D01*
X2940000Y-14656000D01*
X2890000Y-14706000D01*
X2940000Y-14756000D01*
D10*
X3355539Y-14797484D02*
X3241253Y-14797484D01*
X3298396Y-14797484D02*
X3298396Y-14597484D01*
X3298396Y-14597484D02*
X3279348Y-14626055D01*
X3279348Y-14626055D02*
X3260301Y-14645103D01*
X3260301Y-14645103D02*
X3241253Y-14654627D01*
X3441253Y-14778436D02*
X3450777Y-14787960D01*
X3450777Y-14787960D02*
X3441253Y-14797484D01*
X3441253Y-14797484D02*
X3431729Y-14787960D01*
X3431729Y-14787960D02*
X3441253Y-14778436D01*
X3441253Y-14778436D02*
X3441253Y-14797484D01*
X3574586Y-14597484D02*
X3593634Y-14597484D01*
X3593634Y-14597484D02*
X3612682Y-14607008D01*
X3612682Y-14607008D02*
X3622205Y-14616531D01*
X3622205Y-14616531D02*
X3631729Y-14635579D01*
X3631729Y-14635579D02*
X3641253Y-14673674D01*
X3641253Y-14673674D02*
X3641253Y-14721293D01*
X3641253Y-14721293D02*
X3631729Y-14759388D01*
X3631729Y-14759388D02*
X3622205Y-14778436D01*
X3622205Y-14778436D02*
X3612682Y-14787960D01*
X3612682Y-14787960D02*
X3593634Y-14797484D01*
X3593634Y-14797484D02*
X3574586Y-14797484D01*
X3574586Y-14797484D02*
X3555539Y-14787960D01*
X3555539Y-14787960D02*
X3546015Y-14778436D01*
X3546015Y-14778436D02*
X3536491Y-14759388D01*
X3536491Y-14759388D02*
X3526967Y-14721293D01*
X3526967Y-14721293D02*
X3526967Y-14673674D01*
X3526967Y-14673674D02*
X3536491Y-14635579D01*
X3536491Y-14635579D02*
X3546015Y-14616531D01*
X3546015Y-14616531D02*
X3555539Y-14607008D01*
X3555539Y-14607008D02*
X3574586Y-14597484D01*
X3765062Y-14597484D02*
X3784110Y-14597484D01*
X3784110Y-14597484D02*
X3803158Y-14607008D01*
X3803158Y-14607008D02*
X3812682Y-14616531D01*
X3812682Y-14616531D02*
X3822205Y-14635579D01*
X3822205Y-14635579D02*
X3831729Y-14673674D01*
X3831729Y-14673674D02*
X3831729Y-14721293D01*
X3831729Y-14721293D02*
X3822205Y-14759388D01*
X3822205Y-14759388D02*
X3812682Y-14778436D01*
X3812682Y-14778436D02*
X3803158Y-14787960D01*
X3803158Y-14787960D02*
X3784110Y-14797484D01*
X3784110Y-14797484D02*
X3765062Y-14797484D01*
X3765062Y-14797484D02*
X3746015Y-14787960D01*
X3746015Y-14787960D02*
X3736491Y-14778436D01*
X3736491Y-14778436D02*
X3726967Y-14759388D01*
X3726967Y-14759388D02*
X3717443Y-14721293D01*
X3717443Y-14721293D02*
X3717443Y-14673674D01*
X3717443Y-14673674D02*
X3726967Y-14635579D01*
X3726967Y-14635579D02*
X3736491Y-14616531D01*
X3736491Y-14616531D02*
X3746015Y-14607008D01*
X3746015Y-14607008D02*
X3765062Y-14597484D01*
X3955539Y-14597484D02*
X3974586Y-14597484D01*
X3974586Y-14597484D02*
X3993634Y-14607008D01*
X3993634Y-14607008D02*
X4003158Y-14616531D01*
X4003158Y-14616531D02*
X4012682Y-14635579D01*
X4012682Y-14635579D02*
X4022205Y-14673674D01*
X4022205Y-14673674D02*
X4022205Y-14721293D01*
X4022205Y-14721293D02*
X4012682Y-14759388D01*
X4012682Y-14759388D02*
X4003158Y-14778436D01*
X4003158Y-14778436D02*
X3993634Y-14787960D01*
X3993634Y-14787960D02*
X3974586Y-14797484D01*
X3974586Y-14797484D02*
X3955539Y-14797484D01*
X3955539Y-14797484D02*
X3936491Y-14787960D01*
X3936491Y-14787960D02*
X3926967Y-14778436D01*
X3926967Y-14778436D02*
X3917443Y-14759388D01*
X3917443Y-14759388D02*
X3907920Y-14721293D01*
X3907920Y-14721293D02*
X3907920Y-14673674D01*
X3907920Y-14673674D02*
X3917443Y-14635579D01*
X3917443Y-14635579D02*
X3926967Y-14616531D01*
X3926967Y-14616531D02*
X3936491Y-14607008D01*
X3936491Y-14607008D02*
X3955539Y-14597484D01*
X4107920Y-14797484D02*
X4107920Y-14664150D01*
X4107920Y-14683198D02*
X4117443Y-14673674D01*
X4117443Y-14673674D02*
X4136491Y-14664150D01*
X4136491Y-14664150D02*
X4165063Y-14664150D01*
X4165063Y-14664150D02*
X4184110Y-14673674D01*
X4184110Y-14673674D02*
X4193634Y-14692722D01*
X4193634Y-14692722D02*
X4193634Y-14797484D01*
X4193634Y-14692722D02*
X4203158Y-14673674D01*
X4203158Y-14673674D02*
X4222205Y-14664150D01*
X4222205Y-14664150D02*
X4250777Y-14664150D01*
X4250777Y-14664150D02*
X4269825Y-14673674D01*
X4269825Y-14673674D02*
X4279348Y-14692722D01*
X4279348Y-14692722D02*
X4279348Y-14797484D01*
X4374586Y-14797484D02*
X4374586Y-14664150D01*
X4374586Y-14683198D02*
X4384110Y-14673674D01*
X4384110Y-14673674D02*
X4403158Y-14664150D01*
X4403158Y-14664150D02*
X4431729Y-14664150D01*
X4431729Y-14664150D02*
X4450777Y-14673674D01*
X4450777Y-14673674D02*
X4460301Y-14692722D01*
X4460301Y-14692722D02*
X4460301Y-14797484D01*
X4460301Y-14692722D02*
X4469825Y-14673674D01*
X4469825Y-14673674D02*
X4488872Y-14664150D01*
X4488872Y-14664150D02*
X4517444Y-14664150D01*
X4517444Y-14664150D02*
X4536491Y-14673674D01*
X4536491Y-14673674D02*
X4546015Y-14692722D01*
X4546015Y-14692722D02*
X4546015Y-14797484D01*
X4936491Y-14587960D02*
X4765063Y-14845103D01*
X5193634Y-14597484D02*
X5212682Y-14597484D01*
X5212682Y-14597484D02*
X5231729Y-14607008D01*
X5231729Y-14607008D02*
X5241253Y-14616531D01*
X5241253Y-14616531D02*
X5250777Y-14635579D01*
X5250777Y-14635579D02*
X5260301Y-14673674D01*
X5260301Y-14673674D02*
X5260301Y-14721293D01*
X5260301Y-14721293D02*
X5250777Y-14759388D01*
X5250777Y-14759388D02*
X5241253Y-14778436D01*
X5241253Y-14778436D02*
X5231729Y-14787960D01*
X5231729Y-14787960D02*
X5212682Y-14797484D01*
X5212682Y-14797484D02*
X5193634Y-14797484D01*
X5193634Y-14797484D02*
X5174587Y-14787960D01*
X5174587Y-14787960D02*
X5165063Y-14778436D01*
X5165063Y-14778436D02*
X5155539Y-14759388D01*
X5155539Y-14759388D02*
X5146015Y-14721293D01*
X5146015Y-14721293D02*
X5146015Y-14673674D01*
X5146015Y-14673674D02*
X5155539Y-14635579D01*
X5155539Y-14635579D02*
X5165063Y-14616531D01*
X5165063Y-14616531D02*
X5174587Y-14607008D01*
X5174587Y-14607008D02*
X5193634Y-14597484D01*
X5346015Y-14778436D02*
X5355539Y-14787960D01*
X5355539Y-14787960D02*
X5346015Y-14797484D01*
X5346015Y-14797484D02*
X5336491Y-14787960D01*
X5336491Y-14787960D02*
X5346015Y-14778436D01*
X5346015Y-14778436D02*
X5346015Y-14797484D01*
X5479348Y-14597484D02*
X5498396Y-14597484D01*
X5498396Y-14597484D02*
X5517444Y-14607008D01*
X5517444Y-14607008D02*
X5526968Y-14616531D01*
X5526968Y-14616531D02*
X5536491Y-14635579D01*
X5536491Y-14635579D02*
X5546015Y-14673674D01*
X5546015Y-14673674D02*
X5546015Y-14721293D01*
X5546015Y-14721293D02*
X5536491Y-14759388D01*
X5536491Y-14759388D02*
X5526968Y-14778436D01*
X5526968Y-14778436D02*
X5517444Y-14787960D01*
X5517444Y-14787960D02*
X5498396Y-14797484D01*
X5498396Y-14797484D02*
X5479348Y-14797484D01*
X5479348Y-14797484D02*
X5460301Y-14787960D01*
X5460301Y-14787960D02*
X5450777Y-14778436D01*
X5450777Y-14778436D02*
X5441253Y-14759388D01*
X5441253Y-14759388D02*
X5431729Y-14721293D01*
X5431729Y-14721293D02*
X5431729Y-14673674D01*
X5431729Y-14673674D02*
X5441253Y-14635579D01*
X5441253Y-14635579D02*
X5450777Y-14616531D01*
X5450777Y-14616531D02*
X5460301Y-14607008D01*
X5460301Y-14607008D02*
X5479348Y-14597484D01*
X5612682Y-14597484D02*
X5736491Y-14597484D01*
X5736491Y-14597484D02*
X5669825Y-14673674D01*
X5669825Y-14673674D02*
X5698396Y-14673674D01*
X5698396Y-14673674D02*
X5717444Y-14683198D01*
X5717444Y-14683198D02*
X5726967Y-14692722D01*
X5726967Y-14692722D02*
X5736491Y-14711769D01*
X5736491Y-14711769D02*
X5736491Y-14759388D01*
X5736491Y-14759388D02*
X5726967Y-14778436D01*
X5726967Y-14778436D02*
X5717444Y-14787960D01*
X5717444Y-14787960D02*
X5698396Y-14797484D01*
X5698396Y-14797484D02*
X5641253Y-14797484D01*
X5641253Y-14797484D02*
X5622206Y-14787960D01*
X5622206Y-14787960D02*
X5612682Y-14778436D01*
X5831729Y-14797484D02*
X5869825Y-14797484D01*
X5869825Y-14797484D02*
X5888872Y-14787960D01*
X5888872Y-14787960D02*
X5898396Y-14778436D01*
X5898396Y-14778436D02*
X5917444Y-14749865D01*
X5917444Y-14749865D02*
X5926967Y-14711769D01*
X5926967Y-14711769D02*
X5926967Y-14635579D01*
X5926967Y-14635579D02*
X5917444Y-14616531D01*
X5917444Y-14616531D02*
X5907920Y-14607008D01*
X5907920Y-14607008D02*
X5888872Y-14597484D01*
X5888872Y-14597484D02*
X5850777Y-14597484D01*
X5850777Y-14597484D02*
X5831729Y-14607008D01*
X5831729Y-14607008D02*
X5822206Y-14616531D01*
X5822206Y-14616531D02*
X5812682Y-14635579D01*
X5812682Y-14635579D02*
X5812682Y-14683198D01*
X5812682Y-14683198D02*
X5822206Y-14702246D01*
X5822206Y-14702246D02*
X5831729Y-14711769D01*
X5831729Y-14711769D02*
X5850777Y-14721293D01*
X5850777Y-14721293D02*
X5888872Y-14721293D01*
X5888872Y-14721293D02*
X5907920Y-14711769D01*
X5907920Y-14711769D02*
X5917444Y-14702246D01*
X5917444Y-14702246D02*
X5926967Y-14683198D01*
X6098396Y-14664150D02*
X6098396Y-14797484D01*
X6050777Y-14587960D02*
X6003158Y-14730817D01*
X6003158Y-14730817D02*
X6126967Y-14730817D01*
X6193634Y-14597484D02*
X6193634Y-14635579D01*
X6269825Y-14597484D02*
X6269825Y-14635579D01*
X6565063Y-14873674D02*
X6555539Y-14864150D01*
X6555539Y-14864150D02*
X6536491Y-14835579D01*
X6536491Y-14835579D02*
X6526968Y-14816531D01*
X6526968Y-14816531D02*
X6517444Y-14787960D01*
X6517444Y-14787960D02*
X6507920Y-14740341D01*
X6507920Y-14740341D02*
X6507920Y-14702246D01*
X6507920Y-14702246D02*
X6517444Y-14654627D01*
X6517444Y-14654627D02*
X6526968Y-14626055D01*
X6526968Y-14626055D02*
X6536491Y-14607008D01*
X6536491Y-14607008D02*
X6555539Y-14578436D01*
X6555539Y-14578436D02*
X6565063Y-14568912D01*
X6726968Y-14597484D02*
X6688872Y-14597484D01*
X6688872Y-14597484D02*
X6669825Y-14607008D01*
X6669825Y-14607008D02*
X6660301Y-14616531D01*
X6660301Y-14616531D02*
X6641253Y-14645103D01*
X6641253Y-14645103D02*
X6631729Y-14683198D01*
X6631729Y-14683198D02*
X6631729Y-14759388D01*
X6631729Y-14759388D02*
X6641253Y-14778436D01*
X6641253Y-14778436D02*
X6650777Y-14787960D01*
X6650777Y-14787960D02*
X6669825Y-14797484D01*
X6669825Y-14797484D02*
X6707920Y-14797484D01*
X6707920Y-14797484D02*
X6726968Y-14787960D01*
X6726968Y-14787960D02*
X6736491Y-14778436D01*
X6736491Y-14778436D02*
X6746015Y-14759388D01*
X6746015Y-14759388D02*
X6746015Y-14711769D01*
X6746015Y-14711769D02*
X6736491Y-14692722D01*
X6736491Y-14692722D02*
X6726968Y-14683198D01*
X6726968Y-14683198D02*
X6707920Y-14673674D01*
X6707920Y-14673674D02*
X6669825Y-14673674D01*
X6669825Y-14673674D02*
X6650777Y-14683198D01*
X6650777Y-14683198D02*
X6641253Y-14692722D01*
X6641253Y-14692722D02*
X6631729Y-14711769D01*
X6812682Y-14597484D02*
X6946015Y-14597484D01*
X6946015Y-14597484D02*
X6860301Y-14797484D01*
X7174587Y-14797484D02*
X7174587Y-14597484D01*
X7260301Y-14797484D02*
X7260301Y-14692722D01*
X7260301Y-14692722D02*
X7250777Y-14673674D01*
X7250777Y-14673674D02*
X7231730Y-14664150D01*
X7231730Y-14664150D02*
X7203158Y-14664150D01*
X7203158Y-14664150D02*
X7184110Y-14673674D01*
X7184110Y-14673674D02*
X7174587Y-14683198D01*
X7384110Y-14797484D02*
X7365063Y-14787960D01*
X7365063Y-14787960D02*
X7355539Y-14778436D01*
X7355539Y-14778436D02*
X7346015Y-14759388D01*
X7346015Y-14759388D02*
X7346015Y-14702246D01*
X7346015Y-14702246D02*
X7355539Y-14683198D01*
X7355539Y-14683198D02*
X7365063Y-14673674D01*
X7365063Y-14673674D02*
X7384110Y-14664150D01*
X7384110Y-14664150D02*
X7412682Y-14664150D01*
X7412682Y-14664150D02*
X7431730Y-14673674D01*
X7431730Y-14673674D02*
X7441253Y-14683198D01*
X7441253Y-14683198D02*
X7450777Y-14702246D01*
X7450777Y-14702246D02*
X7450777Y-14759388D01*
X7450777Y-14759388D02*
X7441253Y-14778436D01*
X7441253Y-14778436D02*
X7431730Y-14787960D01*
X7431730Y-14787960D02*
X7412682Y-14797484D01*
X7412682Y-14797484D02*
X7384110Y-14797484D01*
X7565063Y-14797484D02*
X7546015Y-14787960D01*
X7546015Y-14787960D02*
X7536491Y-14768912D01*
X7536491Y-14768912D02*
X7536491Y-14597484D01*
X7717444Y-14787960D02*
X7698396Y-14797484D01*
X7698396Y-14797484D02*
X7660301Y-14797484D01*
X7660301Y-14797484D02*
X7641253Y-14787960D01*
X7641253Y-14787960D02*
X7631730Y-14768912D01*
X7631730Y-14768912D02*
X7631730Y-14692722D01*
X7631730Y-14692722D02*
X7641253Y-14673674D01*
X7641253Y-14673674D02*
X7660301Y-14664150D01*
X7660301Y-14664150D02*
X7698396Y-14664150D01*
X7698396Y-14664150D02*
X7717444Y-14673674D01*
X7717444Y-14673674D02*
X7726968Y-14692722D01*
X7726968Y-14692722D02*
X7726968Y-14711769D01*
X7726968Y-14711769D02*
X7631730Y-14730817D01*
X7803158Y-14787960D02*
X7822206Y-14797484D01*
X7822206Y-14797484D02*
X7860301Y-14797484D01*
X7860301Y-14797484D02*
X7879349Y-14787960D01*
X7879349Y-14787960D02*
X7888872Y-14768912D01*
X7888872Y-14768912D02*
X7888872Y-14759388D01*
X7888872Y-14759388D02*
X7879349Y-14740341D01*
X7879349Y-14740341D02*
X7860301Y-14730817D01*
X7860301Y-14730817D02*
X7831730Y-14730817D01*
X7831730Y-14730817D02*
X7812682Y-14721293D01*
X7812682Y-14721293D02*
X7803158Y-14702246D01*
X7803158Y-14702246D02*
X7803158Y-14692722D01*
X7803158Y-14692722D02*
X7812682Y-14673674D01*
X7812682Y-14673674D02*
X7831730Y-14664150D01*
X7831730Y-14664150D02*
X7860301Y-14664150D01*
X7860301Y-14664150D02*
X7879349Y-14673674D01*
X7955539Y-14873674D02*
X7965063Y-14864150D01*
X7965063Y-14864150D02*
X7984111Y-14835579D01*
X7984111Y-14835579D02*
X7993634Y-14816531D01*
X7993634Y-14816531D02*
X8003158Y-14787960D01*
X8003158Y-14787960D02*
X8012682Y-14740341D01*
X8012682Y-14740341D02*
X8012682Y-14702246D01*
X8012682Y-14702246D02*
X8003158Y-14654627D01*
X8003158Y-14654627D02*
X7993634Y-14626055D01*
X7993634Y-14626055D02*
X7984111Y-14607008D01*
X7984111Y-14607008D02*
X7965063Y-14578436D01*
X7965063Y-14578436D02*
X7955539Y-14568912D01*
D12*
X2860000Y-14905000D02*
X2990000Y-15035000D01*
X2990000Y-14905000D02*
X2860000Y-15035000D01*
X2990000Y-14970000D02*
G75*
G02*
X2860000Y-14970000I-65000J0D01*
G01*
X2860000Y-14970000D02*
G75*
G02*
X2990000Y-14970000I65000J0D01*
G01*
D10*
X3355539Y-15061484D02*
X3241253Y-15061484D01*
X3298396Y-15061484D02*
X3298396Y-14861484D01*
X3298396Y-14861484D02*
X3279348Y-14890055D01*
X3279348Y-14890055D02*
X3260301Y-14909103D01*
X3260301Y-14909103D02*
X3241253Y-14918627D01*
X3441253Y-15042436D02*
X3450777Y-15051960D01*
X3450777Y-15051960D02*
X3441253Y-15061484D01*
X3441253Y-15061484D02*
X3431729Y-15051960D01*
X3431729Y-15051960D02*
X3441253Y-15042436D01*
X3441253Y-15042436D02*
X3441253Y-15061484D01*
X3517443Y-14861484D02*
X3641253Y-14861484D01*
X3641253Y-14861484D02*
X3574586Y-14937674D01*
X3574586Y-14937674D02*
X3603158Y-14937674D01*
X3603158Y-14937674D02*
X3622205Y-14947198D01*
X3622205Y-14947198D02*
X3631729Y-14956722D01*
X3631729Y-14956722D02*
X3641253Y-14975769D01*
X3641253Y-14975769D02*
X3641253Y-15023388D01*
X3641253Y-15023388D02*
X3631729Y-15042436D01*
X3631729Y-15042436D02*
X3622205Y-15051960D01*
X3622205Y-15051960D02*
X3603158Y-15061484D01*
X3603158Y-15061484D02*
X3546015Y-15061484D01*
X3546015Y-15061484D02*
X3526967Y-15051960D01*
X3526967Y-15051960D02*
X3517443Y-15042436D01*
X3765062Y-14861484D02*
X3784110Y-14861484D01*
X3784110Y-14861484D02*
X3803158Y-14871008D01*
X3803158Y-14871008D02*
X3812682Y-14880531D01*
X3812682Y-14880531D02*
X3822205Y-14899579D01*
X3822205Y-14899579D02*
X3831729Y-14937674D01*
X3831729Y-14937674D02*
X3831729Y-14985293D01*
X3831729Y-14985293D02*
X3822205Y-15023388D01*
X3822205Y-15023388D02*
X3812682Y-15042436D01*
X3812682Y-15042436D02*
X3803158Y-15051960D01*
X3803158Y-15051960D02*
X3784110Y-15061484D01*
X3784110Y-15061484D02*
X3765062Y-15061484D01*
X3765062Y-15061484D02*
X3746015Y-15051960D01*
X3746015Y-15051960D02*
X3736491Y-15042436D01*
X3736491Y-15042436D02*
X3726967Y-15023388D01*
X3726967Y-15023388D02*
X3717443Y-14985293D01*
X3717443Y-14985293D02*
X3717443Y-14937674D01*
X3717443Y-14937674D02*
X3726967Y-14899579D01*
X3726967Y-14899579D02*
X3736491Y-14880531D01*
X3736491Y-14880531D02*
X3746015Y-14871008D01*
X3746015Y-14871008D02*
X3765062Y-14861484D01*
X3955539Y-14861484D02*
X3974586Y-14861484D01*
X3974586Y-14861484D02*
X3993634Y-14871008D01*
X3993634Y-14871008D02*
X4003158Y-14880531D01*
X4003158Y-14880531D02*
X4012682Y-14899579D01*
X4012682Y-14899579D02*
X4022205Y-14937674D01*
X4022205Y-14937674D02*
X4022205Y-14985293D01*
X4022205Y-14985293D02*
X4012682Y-15023388D01*
X4012682Y-15023388D02*
X4003158Y-15042436D01*
X4003158Y-15042436D02*
X3993634Y-15051960D01*
X3993634Y-15051960D02*
X3974586Y-15061484D01*
X3974586Y-15061484D02*
X3955539Y-15061484D01*
X3955539Y-15061484D02*
X3936491Y-15051960D01*
X3936491Y-15051960D02*
X3926967Y-15042436D01*
X3926967Y-15042436D02*
X3917443Y-15023388D01*
X3917443Y-15023388D02*
X3907920Y-14985293D01*
X3907920Y-14985293D02*
X3907920Y-14937674D01*
X3907920Y-14937674D02*
X3917443Y-14899579D01*
X3917443Y-14899579D02*
X3926967Y-14880531D01*
X3926967Y-14880531D02*
X3936491Y-14871008D01*
X3936491Y-14871008D02*
X3955539Y-14861484D01*
X4107920Y-15061484D02*
X4107920Y-14928150D01*
X4107920Y-14947198D02*
X4117443Y-14937674D01*
X4117443Y-14937674D02*
X4136491Y-14928150D01*
X4136491Y-14928150D02*
X4165063Y-14928150D01*
X4165063Y-14928150D02*
X4184110Y-14937674D01*
X4184110Y-14937674D02*
X4193634Y-14956722D01*
X4193634Y-14956722D02*
X4193634Y-15061484D01*
X4193634Y-14956722D02*
X4203158Y-14937674D01*
X4203158Y-14937674D02*
X4222205Y-14928150D01*
X4222205Y-14928150D02*
X4250777Y-14928150D01*
X4250777Y-14928150D02*
X4269825Y-14937674D01*
X4269825Y-14937674D02*
X4279348Y-14956722D01*
X4279348Y-14956722D02*
X4279348Y-15061484D01*
X4374586Y-15061484D02*
X4374586Y-14928150D01*
X4374586Y-14947198D02*
X4384110Y-14937674D01*
X4384110Y-14937674D02*
X4403158Y-14928150D01*
X4403158Y-14928150D02*
X4431729Y-14928150D01*
X4431729Y-14928150D02*
X4450777Y-14937674D01*
X4450777Y-14937674D02*
X4460301Y-14956722D01*
X4460301Y-14956722D02*
X4460301Y-15061484D01*
X4460301Y-14956722D02*
X4469825Y-14937674D01*
X4469825Y-14937674D02*
X4488872Y-14928150D01*
X4488872Y-14928150D02*
X4517444Y-14928150D01*
X4517444Y-14928150D02*
X4536491Y-14937674D01*
X4536491Y-14937674D02*
X4546015Y-14956722D01*
X4546015Y-14956722D02*
X4546015Y-15061484D01*
X4936491Y-14851960D02*
X4765063Y-15109103D01*
X5193634Y-14861484D02*
X5212682Y-14861484D01*
X5212682Y-14861484D02*
X5231729Y-14871008D01*
X5231729Y-14871008D02*
X5241253Y-14880531D01*
X5241253Y-14880531D02*
X5250777Y-14899579D01*
X5250777Y-14899579D02*
X5260301Y-14937674D01*
X5260301Y-14937674D02*
X5260301Y-14985293D01*
X5260301Y-14985293D02*
X5250777Y-15023388D01*
X5250777Y-15023388D02*
X5241253Y-15042436D01*
X5241253Y-15042436D02*
X5231729Y-15051960D01*
X5231729Y-15051960D02*
X5212682Y-15061484D01*
X5212682Y-15061484D02*
X5193634Y-15061484D01*
X5193634Y-15061484D02*
X5174587Y-15051960D01*
X5174587Y-15051960D02*
X5165063Y-15042436D01*
X5165063Y-15042436D02*
X5155539Y-15023388D01*
X5155539Y-15023388D02*
X5146015Y-14985293D01*
X5146015Y-14985293D02*
X5146015Y-14937674D01*
X5146015Y-14937674D02*
X5155539Y-14899579D01*
X5155539Y-14899579D02*
X5165063Y-14880531D01*
X5165063Y-14880531D02*
X5174587Y-14871008D01*
X5174587Y-14871008D02*
X5193634Y-14861484D01*
X5346015Y-15042436D02*
X5355539Y-15051960D01*
X5355539Y-15051960D02*
X5346015Y-15061484D01*
X5346015Y-15061484D02*
X5336491Y-15051960D01*
X5336491Y-15051960D02*
X5346015Y-15042436D01*
X5346015Y-15042436D02*
X5346015Y-15061484D01*
X5479348Y-14861484D02*
X5498396Y-14861484D01*
X5498396Y-14861484D02*
X5517444Y-14871008D01*
X5517444Y-14871008D02*
X5526968Y-14880531D01*
X5526968Y-14880531D02*
X5536491Y-14899579D01*
X5536491Y-14899579D02*
X5546015Y-14937674D01*
X5546015Y-14937674D02*
X5546015Y-14985293D01*
X5546015Y-14985293D02*
X5536491Y-15023388D01*
X5536491Y-15023388D02*
X5526968Y-15042436D01*
X5526968Y-15042436D02*
X5517444Y-15051960D01*
X5517444Y-15051960D02*
X5498396Y-15061484D01*
X5498396Y-15061484D02*
X5479348Y-15061484D01*
X5479348Y-15061484D02*
X5460301Y-15051960D01*
X5460301Y-15051960D02*
X5450777Y-15042436D01*
X5450777Y-15042436D02*
X5441253Y-15023388D01*
X5441253Y-15023388D02*
X5431729Y-14985293D01*
X5431729Y-14985293D02*
X5431729Y-14937674D01*
X5431729Y-14937674D02*
X5441253Y-14899579D01*
X5441253Y-14899579D02*
X5450777Y-14880531D01*
X5450777Y-14880531D02*
X5460301Y-14871008D01*
X5460301Y-14871008D02*
X5479348Y-14861484D01*
X5726967Y-14861484D02*
X5631729Y-14861484D01*
X5631729Y-14861484D02*
X5622206Y-14956722D01*
X5622206Y-14956722D02*
X5631729Y-14947198D01*
X5631729Y-14947198D02*
X5650777Y-14937674D01*
X5650777Y-14937674D02*
X5698396Y-14937674D01*
X5698396Y-14937674D02*
X5717444Y-14947198D01*
X5717444Y-14947198D02*
X5726967Y-14956722D01*
X5726967Y-14956722D02*
X5736491Y-14975769D01*
X5736491Y-14975769D02*
X5736491Y-15023388D01*
X5736491Y-15023388D02*
X5726967Y-15042436D01*
X5726967Y-15042436D02*
X5717444Y-15051960D01*
X5717444Y-15051960D02*
X5698396Y-15061484D01*
X5698396Y-15061484D02*
X5650777Y-15061484D01*
X5650777Y-15061484D02*
X5631729Y-15051960D01*
X5631729Y-15051960D02*
X5622206Y-15042436D01*
X5926967Y-15061484D02*
X5812682Y-15061484D01*
X5869825Y-15061484D02*
X5869825Y-14861484D01*
X5869825Y-14861484D02*
X5850777Y-14890055D01*
X5850777Y-14890055D02*
X5831729Y-14909103D01*
X5831729Y-14909103D02*
X5812682Y-14918627D01*
X6003158Y-14880531D02*
X6012682Y-14871008D01*
X6012682Y-14871008D02*
X6031729Y-14861484D01*
X6031729Y-14861484D02*
X6079348Y-14861484D01*
X6079348Y-14861484D02*
X6098396Y-14871008D01*
X6098396Y-14871008D02*
X6107920Y-14880531D01*
X6107920Y-14880531D02*
X6117444Y-14899579D01*
X6117444Y-14899579D02*
X6117444Y-14918627D01*
X6117444Y-14918627D02*
X6107920Y-14947198D01*
X6107920Y-14947198D02*
X5993634Y-15061484D01*
X5993634Y-15061484D02*
X6117444Y-15061484D01*
X6193634Y-14861484D02*
X6193634Y-14899579D01*
X6269825Y-14861484D02*
X6269825Y-14899579D01*
X6565063Y-15137674D02*
X6555539Y-15128150D01*
X6555539Y-15128150D02*
X6536491Y-15099579D01*
X6536491Y-15099579D02*
X6526968Y-15080531D01*
X6526968Y-15080531D02*
X6517444Y-15051960D01*
X6517444Y-15051960D02*
X6507920Y-15004341D01*
X6507920Y-15004341D02*
X6507920Y-14966246D01*
X6507920Y-14966246D02*
X6517444Y-14918627D01*
X6517444Y-14918627D02*
X6526968Y-14890055D01*
X6526968Y-14890055D02*
X6536491Y-14871008D01*
X6536491Y-14871008D02*
X6555539Y-14842436D01*
X6555539Y-14842436D02*
X6565063Y-14832912D01*
X6631729Y-14880531D02*
X6641253Y-14871008D01*
X6641253Y-14871008D02*
X6660301Y-14861484D01*
X6660301Y-14861484D02*
X6707920Y-14861484D01*
X6707920Y-14861484D02*
X6726968Y-14871008D01*
X6726968Y-14871008D02*
X6736491Y-14880531D01*
X6736491Y-14880531D02*
X6746015Y-14899579D01*
X6746015Y-14899579D02*
X6746015Y-14918627D01*
X6746015Y-14918627D02*
X6736491Y-14947198D01*
X6736491Y-14947198D02*
X6622206Y-15061484D01*
X6622206Y-15061484D02*
X6746015Y-15061484D01*
X6984110Y-15061484D02*
X6984110Y-14861484D01*
X7069825Y-15061484D02*
X7069825Y-14956722D01*
X7069825Y-14956722D02*
X7060301Y-14937674D01*
X7060301Y-14937674D02*
X7041253Y-14928150D01*
X7041253Y-14928150D02*
X7012682Y-14928150D01*
X7012682Y-14928150D02*
X6993634Y-14937674D01*
X6993634Y-14937674D02*
X6984110Y-14947198D01*
X7193634Y-15061484D02*
X7174587Y-15051960D01*
X7174587Y-15051960D02*
X7165063Y-15042436D01*
X7165063Y-15042436D02*
X7155539Y-15023388D01*
X7155539Y-15023388D02*
X7155539Y-14966246D01*
X7155539Y-14966246D02*
X7165063Y-14947198D01*
X7165063Y-14947198D02*
X7174587Y-14937674D01*
X7174587Y-14937674D02*
X7193634Y-14928150D01*
X7193634Y-14928150D02*
X7222206Y-14928150D01*
X7222206Y-14928150D02*
X7241253Y-14937674D01*
X7241253Y-14937674D02*
X7250777Y-14947198D01*
X7250777Y-14947198D02*
X7260301Y-14966246D01*
X7260301Y-14966246D02*
X7260301Y-15023388D01*
X7260301Y-15023388D02*
X7250777Y-15042436D01*
X7250777Y-15042436D02*
X7241253Y-15051960D01*
X7241253Y-15051960D02*
X7222206Y-15061484D01*
X7222206Y-15061484D02*
X7193634Y-15061484D01*
X7374587Y-15061484D02*
X7355539Y-15051960D01*
X7355539Y-15051960D02*
X7346015Y-15032912D01*
X7346015Y-15032912D02*
X7346015Y-14861484D01*
X7526968Y-15051960D02*
X7507920Y-15061484D01*
X7507920Y-15061484D02*
X7469825Y-15061484D01*
X7469825Y-15061484D02*
X7450777Y-15051960D01*
X7450777Y-15051960D02*
X7441253Y-15032912D01*
X7441253Y-15032912D02*
X7441253Y-14956722D01*
X7441253Y-14956722D02*
X7450777Y-14937674D01*
X7450777Y-14937674D02*
X7469825Y-14928150D01*
X7469825Y-14928150D02*
X7507920Y-14928150D01*
X7507920Y-14928150D02*
X7526968Y-14937674D01*
X7526968Y-14937674D02*
X7536491Y-14956722D01*
X7536491Y-14956722D02*
X7536491Y-14975769D01*
X7536491Y-14975769D02*
X7441253Y-14994817D01*
X7612682Y-15051960D02*
X7631730Y-15061484D01*
X7631730Y-15061484D02*
X7669825Y-15061484D01*
X7669825Y-15061484D02*
X7688872Y-15051960D01*
X7688872Y-15051960D02*
X7698396Y-15032912D01*
X7698396Y-15032912D02*
X7698396Y-15023388D01*
X7698396Y-15023388D02*
X7688872Y-15004341D01*
X7688872Y-15004341D02*
X7669825Y-14994817D01*
X7669825Y-14994817D02*
X7641253Y-14994817D01*
X7641253Y-14994817D02*
X7622206Y-14985293D01*
X7622206Y-14985293D02*
X7612682Y-14966246D01*
X7612682Y-14966246D02*
X7612682Y-14956722D01*
X7612682Y-14956722D02*
X7622206Y-14937674D01*
X7622206Y-14937674D02*
X7641253Y-14928150D01*
X7641253Y-14928150D02*
X7669825Y-14928150D01*
X7669825Y-14928150D02*
X7688872Y-14937674D01*
X7765063Y-15137674D02*
X7774587Y-15128150D01*
X7774587Y-15128150D02*
X7793634Y-15099579D01*
X7793634Y-15099579D02*
X7803158Y-15080531D01*
X7803158Y-15080531D02*
X7812682Y-15051960D01*
X7812682Y-15051960D02*
X7822206Y-15004341D01*
X7822206Y-15004341D02*
X7822206Y-14966246D01*
X7822206Y-14966246D02*
X7812682Y-14918627D01*
X7812682Y-14918627D02*
X7803158Y-14890055D01*
X7803158Y-14890055D02*
X7793634Y-14871008D01*
X7793634Y-14871008D02*
X7774587Y-14842436D01*
X7774587Y-14842436D02*
X7765063Y-14832912D01*
X2790000Y-15134000D02*
X2990000Y-15334000D01*
X2990000Y-15134000D02*
X2790000Y-15334000D01*
X2890000Y-15134000D02*
X2890000Y-15334000D01*
X2790000Y-15234000D02*
X2990000Y-15234000D01*
X3231729Y-15125484D02*
X3355539Y-15125484D01*
X3355539Y-15125484D02*
X3288872Y-15201674D01*
X3288872Y-15201674D02*
X3317443Y-15201674D01*
X3317443Y-15201674D02*
X3336491Y-15211198D01*
X3336491Y-15211198D02*
X3346015Y-15220722D01*
X3346015Y-15220722D02*
X3355539Y-15239769D01*
X3355539Y-15239769D02*
X3355539Y-15287388D01*
X3355539Y-15287388D02*
X3346015Y-15306436D01*
X3346015Y-15306436D02*
X3336491Y-15315960D01*
X3336491Y-15315960D02*
X3317443Y-15325484D01*
X3317443Y-15325484D02*
X3260301Y-15325484D01*
X3260301Y-15325484D02*
X3241253Y-15315960D01*
X3241253Y-15315960D02*
X3231729Y-15306436D01*
X3441253Y-15306436D02*
X3450777Y-15315960D01*
X3450777Y-15315960D02*
X3441253Y-15325484D01*
X3441253Y-15325484D02*
X3431729Y-15315960D01*
X3431729Y-15315960D02*
X3441253Y-15306436D01*
X3441253Y-15306436D02*
X3441253Y-15325484D01*
X3526967Y-15144531D02*
X3536491Y-15135008D01*
X3536491Y-15135008D02*
X3555539Y-15125484D01*
X3555539Y-15125484D02*
X3603158Y-15125484D01*
X3603158Y-15125484D02*
X3622205Y-15135008D01*
X3622205Y-15135008D02*
X3631729Y-15144531D01*
X3631729Y-15144531D02*
X3641253Y-15163579D01*
X3641253Y-15163579D02*
X3641253Y-15182627D01*
X3641253Y-15182627D02*
X3631729Y-15211198D01*
X3631729Y-15211198D02*
X3517443Y-15325484D01*
X3517443Y-15325484D02*
X3641253Y-15325484D01*
X3765062Y-15125484D02*
X3784110Y-15125484D01*
X3784110Y-15125484D02*
X3803158Y-15135008D01*
X3803158Y-15135008D02*
X3812682Y-15144531D01*
X3812682Y-15144531D02*
X3822205Y-15163579D01*
X3822205Y-15163579D02*
X3831729Y-15201674D01*
X3831729Y-15201674D02*
X3831729Y-15249293D01*
X3831729Y-15249293D02*
X3822205Y-15287388D01*
X3822205Y-15287388D02*
X3812682Y-15306436D01*
X3812682Y-15306436D02*
X3803158Y-15315960D01*
X3803158Y-15315960D02*
X3784110Y-15325484D01*
X3784110Y-15325484D02*
X3765062Y-15325484D01*
X3765062Y-15325484D02*
X3746015Y-15315960D01*
X3746015Y-15315960D02*
X3736491Y-15306436D01*
X3736491Y-15306436D02*
X3726967Y-15287388D01*
X3726967Y-15287388D02*
X3717443Y-15249293D01*
X3717443Y-15249293D02*
X3717443Y-15201674D01*
X3717443Y-15201674D02*
X3726967Y-15163579D01*
X3726967Y-15163579D02*
X3736491Y-15144531D01*
X3736491Y-15144531D02*
X3746015Y-15135008D01*
X3746015Y-15135008D02*
X3765062Y-15125484D01*
X3955539Y-15125484D02*
X3974586Y-15125484D01*
X3974586Y-15125484D02*
X3993634Y-15135008D01*
X3993634Y-15135008D02*
X4003158Y-15144531D01*
X4003158Y-15144531D02*
X4012682Y-15163579D01*
X4012682Y-15163579D02*
X4022205Y-15201674D01*
X4022205Y-15201674D02*
X4022205Y-15249293D01*
X4022205Y-15249293D02*
X4012682Y-15287388D01*
X4012682Y-15287388D02*
X4003158Y-15306436D01*
X4003158Y-15306436D02*
X3993634Y-15315960D01*
X3993634Y-15315960D02*
X3974586Y-15325484D01*
X3974586Y-15325484D02*
X3955539Y-15325484D01*
X3955539Y-15325484D02*
X3936491Y-15315960D01*
X3936491Y-15315960D02*
X3926967Y-15306436D01*
X3926967Y-15306436D02*
X3917443Y-15287388D01*
X3917443Y-15287388D02*
X3907920Y-15249293D01*
X3907920Y-15249293D02*
X3907920Y-15201674D01*
X3907920Y-15201674D02*
X3917443Y-15163579D01*
X3917443Y-15163579D02*
X3926967Y-15144531D01*
X3926967Y-15144531D02*
X3936491Y-15135008D01*
X3936491Y-15135008D02*
X3955539Y-15125484D01*
X4107920Y-15325484D02*
X4107920Y-15192150D01*
X4107920Y-15211198D02*
X4117443Y-15201674D01*
X4117443Y-15201674D02*
X4136491Y-15192150D01*
X4136491Y-15192150D02*
X4165063Y-15192150D01*
X4165063Y-15192150D02*
X4184110Y-15201674D01*
X4184110Y-15201674D02*
X4193634Y-15220722D01*
X4193634Y-15220722D02*
X4193634Y-15325484D01*
X4193634Y-15220722D02*
X4203158Y-15201674D01*
X4203158Y-15201674D02*
X4222205Y-15192150D01*
X4222205Y-15192150D02*
X4250777Y-15192150D01*
X4250777Y-15192150D02*
X4269825Y-15201674D01*
X4269825Y-15201674D02*
X4279348Y-15220722D01*
X4279348Y-15220722D02*
X4279348Y-15325484D01*
X4374586Y-15325484D02*
X4374586Y-15192150D01*
X4374586Y-15211198D02*
X4384110Y-15201674D01*
X4384110Y-15201674D02*
X4403158Y-15192150D01*
X4403158Y-15192150D02*
X4431729Y-15192150D01*
X4431729Y-15192150D02*
X4450777Y-15201674D01*
X4450777Y-15201674D02*
X4460301Y-15220722D01*
X4460301Y-15220722D02*
X4460301Y-15325484D01*
X4460301Y-15220722D02*
X4469825Y-15201674D01*
X4469825Y-15201674D02*
X4488872Y-15192150D01*
X4488872Y-15192150D02*
X4517444Y-15192150D01*
X4517444Y-15192150D02*
X4536491Y-15201674D01*
X4536491Y-15201674D02*
X4546015Y-15220722D01*
X4546015Y-15220722D02*
X4546015Y-15325484D01*
X4936491Y-15115960D02*
X4765063Y-15373103D01*
X5193634Y-15125484D02*
X5212682Y-15125484D01*
X5212682Y-15125484D02*
X5231729Y-15135008D01*
X5231729Y-15135008D02*
X5241253Y-15144531D01*
X5241253Y-15144531D02*
X5250777Y-15163579D01*
X5250777Y-15163579D02*
X5260301Y-15201674D01*
X5260301Y-15201674D02*
X5260301Y-15249293D01*
X5260301Y-15249293D02*
X5250777Y-15287388D01*
X5250777Y-15287388D02*
X5241253Y-15306436D01*
X5241253Y-15306436D02*
X5231729Y-15315960D01*
X5231729Y-15315960D02*
X5212682Y-15325484D01*
X5212682Y-15325484D02*
X5193634Y-15325484D01*
X5193634Y-15325484D02*
X5174587Y-15315960D01*
X5174587Y-15315960D02*
X5165063Y-15306436D01*
X5165063Y-15306436D02*
X5155539Y-15287388D01*
X5155539Y-15287388D02*
X5146015Y-15249293D01*
X5146015Y-15249293D02*
X5146015Y-15201674D01*
X5146015Y-15201674D02*
X5155539Y-15163579D01*
X5155539Y-15163579D02*
X5165063Y-15144531D01*
X5165063Y-15144531D02*
X5174587Y-15135008D01*
X5174587Y-15135008D02*
X5193634Y-15125484D01*
X5346015Y-15306436D02*
X5355539Y-15315960D01*
X5355539Y-15315960D02*
X5346015Y-15325484D01*
X5346015Y-15325484D02*
X5336491Y-15315960D01*
X5336491Y-15315960D02*
X5346015Y-15306436D01*
X5346015Y-15306436D02*
X5346015Y-15325484D01*
X5546015Y-15325484D02*
X5431729Y-15325484D01*
X5488872Y-15325484D02*
X5488872Y-15125484D01*
X5488872Y-15125484D02*
X5469825Y-15154055D01*
X5469825Y-15154055D02*
X5450777Y-15173103D01*
X5450777Y-15173103D02*
X5431729Y-15182627D01*
X5622206Y-15144531D02*
X5631729Y-15135008D01*
X5631729Y-15135008D02*
X5650777Y-15125484D01*
X5650777Y-15125484D02*
X5698396Y-15125484D01*
X5698396Y-15125484D02*
X5717444Y-15135008D01*
X5717444Y-15135008D02*
X5726967Y-15144531D01*
X5726967Y-15144531D02*
X5736491Y-15163579D01*
X5736491Y-15163579D02*
X5736491Y-15182627D01*
X5736491Y-15182627D02*
X5726967Y-15211198D01*
X5726967Y-15211198D02*
X5612682Y-15325484D01*
X5612682Y-15325484D02*
X5736491Y-15325484D01*
X5907920Y-15125484D02*
X5869825Y-15125484D01*
X5869825Y-15125484D02*
X5850777Y-15135008D01*
X5850777Y-15135008D02*
X5841253Y-15144531D01*
X5841253Y-15144531D02*
X5822206Y-15173103D01*
X5822206Y-15173103D02*
X5812682Y-15211198D01*
X5812682Y-15211198D02*
X5812682Y-15287388D01*
X5812682Y-15287388D02*
X5822206Y-15306436D01*
X5822206Y-15306436D02*
X5831729Y-15315960D01*
X5831729Y-15315960D02*
X5850777Y-15325484D01*
X5850777Y-15325484D02*
X5888872Y-15325484D01*
X5888872Y-15325484D02*
X5907920Y-15315960D01*
X5907920Y-15315960D02*
X5917444Y-15306436D01*
X5917444Y-15306436D02*
X5926967Y-15287388D01*
X5926967Y-15287388D02*
X5926967Y-15239769D01*
X5926967Y-15239769D02*
X5917444Y-15220722D01*
X5917444Y-15220722D02*
X5907920Y-15211198D01*
X5907920Y-15211198D02*
X5888872Y-15201674D01*
X5888872Y-15201674D02*
X5850777Y-15201674D01*
X5850777Y-15201674D02*
X5831729Y-15211198D01*
X5831729Y-15211198D02*
X5822206Y-15220722D01*
X5822206Y-15220722D02*
X5812682Y-15239769D01*
X6050777Y-15125484D02*
X6069825Y-15125484D01*
X6069825Y-15125484D02*
X6088872Y-15135008D01*
X6088872Y-15135008D02*
X6098396Y-15144531D01*
X6098396Y-15144531D02*
X6107920Y-15163579D01*
X6107920Y-15163579D02*
X6117444Y-15201674D01*
X6117444Y-15201674D02*
X6117444Y-15249293D01*
X6117444Y-15249293D02*
X6107920Y-15287388D01*
X6107920Y-15287388D02*
X6098396Y-15306436D01*
X6098396Y-15306436D02*
X6088872Y-15315960D01*
X6088872Y-15315960D02*
X6069825Y-15325484D01*
X6069825Y-15325484D02*
X6050777Y-15325484D01*
X6050777Y-15325484D02*
X6031729Y-15315960D01*
X6031729Y-15315960D02*
X6022206Y-15306436D01*
X6022206Y-15306436D02*
X6012682Y-15287388D01*
X6012682Y-15287388D02*
X6003158Y-15249293D01*
X6003158Y-15249293D02*
X6003158Y-15201674D01*
X6003158Y-15201674D02*
X6012682Y-15163579D01*
X6012682Y-15163579D02*
X6022206Y-15144531D01*
X6022206Y-15144531D02*
X6031729Y-15135008D01*
X6031729Y-15135008D02*
X6050777Y-15125484D01*
X6193634Y-15125484D02*
X6193634Y-15163579D01*
X6269825Y-15125484D02*
X6269825Y-15163579D01*
X6565063Y-15401674D02*
X6555539Y-15392150D01*
X6555539Y-15392150D02*
X6536491Y-15363579D01*
X6536491Y-15363579D02*
X6526968Y-15344531D01*
X6526968Y-15344531D02*
X6517444Y-15315960D01*
X6517444Y-15315960D02*
X6507920Y-15268341D01*
X6507920Y-15268341D02*
X6507920Y-15230246D01*
X6507920Y-15230246D02*
X6517444Y-15182627D01*
X6517444Y-15182627D02*
X6526968Y-15154055D01*
X6526968Y-15154055D02*
X6536491Y-15135008D01*
X6536491Y-15135008D02*
X6555539Y-15106436D01*
X6555539Y-15106436D02*
X6565063Y-15096912D01*
X6746015Y-15325484D02*
X6631729Y-15325484D01*
X6688872Y-15325484D02*
X6688872Y-15125484D01*
X6688872Y-15125484D02*
X6669825Y-15154055D01*
X6669825Y-15154055D02*
X6650777Y-15173103D01*
X6650777Y-15173103D02*
X6631729Y-15182627D01*
X6984110Y-15325484D02*
X6984110Y-15125484D01*
X7069825Y-15325484D02*
X7069825Y-15220722D01*
X7069825Y-15220722D02*
X7060301Y-15201674D01*
X7060301Y-15201674D02*
X7041253Y-15192150D01*
X7041253Y-15192150D02*
X7012682Y-15192150D01*
X7012682Y-15192150D02*
X6993634Y-15201674D01*
X6993634Y-15201674D02*
X6984110Y-15211198D01*
X7193634Y-15325484D02*
X7174587Y-15315960D01*
X7174587Y-15315960D02*
X7165063Y-15306436D01*
X7165063Y-15306436D02*
X7155539Y-15287388D01*
X7155539Y-15287388D02*
X7155539Y-15230246D01*
X7155539Y-15230246D02*
X7165063Y-15211198D01*
X7165063Y-15211198D02*
X7174587Y-15201674D01*
X7174587Y-15201674D02*
X7193634Y-15192150D01*
X7193634Y-15192150D02*
X7222206Y-15192150D01*
X7222206Y-15192150D02*
X7241253Y-15201674D01*
X7241253Y-15201674D02*
X7250777Y-15211198D01*
X7250777Y-15211198D02*
X7260301Y-15230246D01*
X7260301Y-15230246D02*
X7260301Y-15287388D01*
X7260301Y-15287388D02*
X7250777Y-15306436D01*
X7250777Y-15306436D02*
X7241253Y-15315960D01*
X7241253Y-15315960D02*
X7222206Y-15325484D01*
X7222206Y-15325484D02*
X7193634Y-15325484D01*
X7374587Y-15325484D02*
X7355539Y-15315960D01*
X7355539Y-15315960D02*
X7346015Y-15296912D01*
X7346015Y-15296912D02*
X7346015Y-15125484D01*
X7526968Y-15315960D02*
X7507920Y-15325484D01*
X7507920Y-15325484D02*
X7469825Y-15325484D01*
X7469825Y-15325484D02*
X7450777Y-15315960D01*
X7450777Y-15315960D02*
X7441253Y-15296912D01*
X7441253Y-15296912D02*
X7441253Y-15220722D01*
X7441253Y-15220722D02*
X7450777Y-15201674D01*
X7450777Y-15201674D02*
X7469825Y-15192150D01*
X7469825Y-15192150D02*
X7507920Y-15192150D01*
X7507920Y-15192150D02*
X7526968Y-15201674D01*
X7526968Y-15201674D02*
X7536491Y-15220722D01*
X7536491Y-15220722D02*
X7536491Y-15239769D01*
X7536491Y-15239769D02*
X7441253Y-15258817D01*
X7603158Y-15401674D02*
X7612682Y-15392150D01*
X7612682Y-15392150D02*
X7631730Y-15363579D01*
X7631730Y-15363579D02*
X7641253Y-15344531D01*
X7641253Y-15344531D02*
X7650777Y-15315960D01*
X7650777Y-15315960D02*
X7660301Y-15268341D01*
X7660301Y-15268341D02*
X7660301Y-15230246D01*
X7660301Y-15230246D02*
X7650777Y-15182627D01*
X7650777Y-15182627D02*
X7641253Y-15154055D01*
X7641253Y-15154055D02*
X7631730Y-15135008D01*
X7631730Y-15135008D02*
X7612682Y-15106436D01*
X7612682Y-15106436D02*
X7603158Y-15096912D01*
M02*
