M48
; DRILL file {KiCad 9.0.3} date 2025-08-17T13:08:38+0200
; FORMAT={-:-/ absolute / metric / decimal}
; #@! TF.CreationDate,2025-08-17T13:08:38+02:00
; #@! TF.GenerationSoftware,Kicad,Pcbnew,9.0.3
; #@! TF.FileFunction,Plated,1,2,PTH
FMAT,2
METRIC
; #@! TA.AperFunction,Plated,PTH,ViaDrill
T1C0.400
; #@! TA.AperFunction,Plated,PTH,ComponentDrill
T2C0.500
; #@! TA.AperFunction,Plated,PTH,ComponentDrill
T3C0.800
; #@! TA.AperFunction,Plated,PTH,ComponentDrill
T4C0.900
; #@! TA.AperFunction,Plated,PTH,ComponentDrill
T5C1.000
; #@! TA.AperFunction,Plated,PTH,ComponentDrill
T6C1.300
; #@! TA.AperFunction,Plated,PTH,ComponentDrill
T7C3.200
%
G90
G05
T1
X32.222Y-44.716
X36.541Y-43.416
X44.791Y-80.416
X48.579Y-55.204
X49.291Y-73.416
X51.041Y-59.416
X55.416Y-67.041
X56.041Y-59.166
X57.041Y-55.13
X57.924Y-75.45
X61.607Y-87.515
X63.791Y-99.666
X64.147Y-57.162
X66.041Y-69.416
X69.291Y-99.666
X71.041Y-41.666
X71.041Y-44.666
X74.791Y-119.666
X80.791Y-49.916
X82.562Y-70.416
X83.791Y-76.416
X83.791Y-79.666
X84.041Y-68.916
X87.896Y-89.42
X90.055Y-112.915
X91.44Y-33.655
X92.468Y-89.42
X92.791Y-98.166
X93.992Y-120.789
T2
X88.15Y-118.249
X90.092Y-37.592
X100.342Y-88.912
X102.628Y-118.122
T3
X52.791Y-71.416
X52.791Y-76.416
X53.541Y-62.416
X53.541Y-64.416
X55.342Y-35.342
X55.342Y-39.142
X57.791Y-85.166
X57.791Y-90.166
X64.592Y-36.092
X64.592Y-38.592
X65.151Y-104.902
X65.151Y-107.402
X69.041Y-86.118
X69.041Y-88.618
X69.541Y-62.416
X69.541Y-64.916
X70.002Y-54.792
X70.002Y-57.292
X77.791Y-54.997
X77.791Y-57.497
X80.276Y-88.658
X80.276Y-91.158
X82.816Y-98.056
X82.816Y-100.556
X84.541Y-105.711
X84.541Y-108.211
X85.791Y-55.755
X85.791Y-58.255
X86.88Y-84.594
X86.88Y-87.094
X89.791Y-101.961
X89.791Y-104.461
X91.291Y-50.211
X91.291Y-52.711
X96.532Y-80.022
X96.532Y-83.822
T4
X38.5Y-84.5
X41.0Y-87.0
X43.5Y-84.5
X63.286Y-112.315
X65.786Y-114.815
X67.604Y-119.935
X68.286Y-112.315
X70.104Y-122.435
X72.604Y-119.935
X95.088Y-91.96
X97.588Y-94.46
X100.088Y-91.96
T5
X34.0Y-34.0
X34.0Y-36.54
X34.0Y-39.08
X34.0Y-77.46
X34.0Y-80.0
X34.0Y-82.54
X34.0Y-121.0
X34.0Y-123.54
X34.0Y-126.08
X34.751Y-90.626
X34.751Y-93.166
X34.751Y-95.706
X34.751Y-98.246
X34.751Y-100.786
X34.751Y-103.326
X34.751Y-105.866
X35.452Y-48.452
X35.452Y-50.992
X35.452Y-53.532
X37.291Y-90.626
X37.291Y-93.166
X37.291Y-95.706
X37.291Y-98.246
X37.291Y-100.786
X37.291Y-103.326
X37.291Y-105.866
X37.992Y-48.452
X37.992Y-50.992
X37.992Y-53.532
X43.041Y-103.916
X43.041Y-111.416
X51.562Y-126.873
X51.816Y-108.331
X51.816Y-115.831
X52.791Y-82.666
X52.791Y-90.166
X52.84Y-95.416
X52.84Y-102.916
X53.291Y-45.092
X53.291Y-52.592
X54.102Y-126.873
X56.642Y-126.873
X57.023Y-108.331
X57.023Y-115.831
X57.541Y-95.416
X57.541Y-102.916
X58.041Y-71.666
X58.041Y-79.166
X58.291Y-45.092
X58.291Y-52.592
X59.182Y-126.873
X61.722Y-126.873
X63.342Y-45.092
X63.342Y-52.592
X64.262Y-126.873
X66.802Y-126.873
X69.342Y-126.873
X96.791Y-103.916
X96.791Y-111.416
X97.282Y-117.221
X97.282Y-119.761
X98.291Y-52.376
X98.291Y-54.916
X102.12Y-103.898
X102.12Y-106.438
X102.12Y-108.978
X102.12Y-111.518
T6
X89.928Y-92.214
X89.928Y-95.214
T7
X100.0Y-35.0
M30
